<svg width="34" height="34" viewBox="0 0 34 34" fill="none" xmlns="http://www.w3.org/2000/svg">
<path d="M20.3465 9.58653L18.8324 11.1006L22.8993 15.1672L24.4134 13.6531C25.1955 12.8711 25.1955 11.6042 24.4134 10.8222L23.1808 9.58653C22.3987 8.80449 21.1317 8.80449 20.3496 9.58653H20.3465ZM18.1253 11.8075L10.833 19.1024C10.5077 19.4277 10.2699 19.8313 10.1385 20.2723L9.03107 24.0355C8.95286 24.3014 9.02481 24.5861 9.21877 24.78C9.41273 24.9739 9.69742 25.0459 9.9602 24.9708L13.7237 23.8635C14.1648 23.7321 14.5683 23.4943 14.8937 23.169L22.1923 15.8741L18.1253 11.8075Z" fill="white"/>
</svg>
