<svg width="32" height="32" viewBox="0 0 32 32" fill="none" xmlns="http://www.w3.org/2000/svg">
<path d="M17.8145 6.35718C19.4042 4.75653 21.6226 3.97219 23.8447 4.20776L24.2891 4.26831C27.8655 4.86945 30.4999 7.98898 30.5 11.6628V12.0281C30.5 14.0913 29.7038 16.0671 28.29 17.5378L27.999 17.825L27.998 17.8269L16.7041 28.4431C16.5133 28.6225 16.2617 28.7224 16 28.7224C15.771 28.7224 15.5497 28.6459 15.3701 28.5066L15.2959 28.4431L4.00195 17.8269L4.00098 17.825L3.70996 17.5378C2.29624 16.0671 1.5 14.0913 1.5 12.0281V11.6628C1.50012 8.10369 3.9727 5.06561 7.37891 4.33276L7.71094 4.26831C9.93087 3.89583 12.1886 4.55751 13.8594 6.04858L14.1855 6.35718L14.9355 7.11304L16 8.18433L17.0645 7.11304L17.8145 6.35718Z" stroke="white" stroke-width="3"/>
</svg>
