<svg width="170" height="150" viewBox="0 0 170 150" fill="none" xmlns="http://www.w3.org/2000/svg">
<path opacity="0.8" d="M155.2 14.9075C151.144 10.8154 146.328 7.56932 141.027 5.35462C135.727 3.13991 130.045 2 124.308 2C118.57 2 112.889 3.13991 107.588 5.35462C102.288 7.56932 97.4719 10.8154 93.4158 14.9075L84.9979 23.3959L76.58 14.9075C68.3869 6.6457 57.2747 2.00428 45.688 2.00428C34.1012 2.00428 22.989 6.6457 14.7959 14.9075C6.60282 23.1692 2 34.3746 2 46.0585C2 57.7424 6.60282 68.9477 14.7959 77.2095L84.9979 148L155.2 77.2095C159.258 73.1194 162.477 68.2631 164.673 62.9181C166.87 57.5731 168 51.8441 168 46.0585C168 40.2728 166.87 34.5438 164.673 29.1989C162.477 23.8539 159.258 18.9976 155.2 14.9075Z" fill="#DB324D" stroke="#DB324D" stroke-width="2.66667" stroke-linecap="round" stroke-linejoin="round"/>
</svg>
