<svg width="120" height="31" viewBox="0 0 120 31" fill="none" xmlns="http://www.w3.org/2000/svg">
<path d="M76.7493 7.19527C84.4242 7.19527 86.7431 12.3919 87.1428 16.789C87.5425 21.1861 85.5437 28.7812 77.5491 28.7812C69.5546 28.7812 66.7563 22.7854 66.7561 18.788C66.7561 14.7907 69.0745 7.19544 76.7493 7.19527ZM76.3499 7.99507C75.4063 7.99521 74.6384 8.45222 74.0334 9.13472C73.4342 9.81085 72.9762 10.7263 72.6262 11.708C72.0131 13.4277 71.7041 15.4353 71.5911 16.9531L71.554 17.5712C71.4732 19.4298 71.8836 21.8936 72.8323 23.9052C73.775 25.904 75.317 27.5818 77.5491 27.582C79.8185 27.5817 81.1119 25.7526 81.8245 23.7168C82.4549 21.9156 82.6872 19.8152 82.7356 18.2324L82.7463 17.5888C82.7463 15.9253 82.2308 13.5625 81.2014 11.6064C80.1788 9.66338 78.5743 7.99531 76.3499 7.99507Z" fill="black"/>
<path d="M56.3629 7.99474H47.1689V8.79422C48.4481 8.79422 49.3009 10.1267 49.5674 10.7929L56.7626 29.1808H58.3616C60.4935 23.9842 64.9173 13.2713 65.5569 11.9921C66.1964 10.713 67.4223 9.3272 67.9553 8.79422V7.99474H61.9592V8.79422C63.5582 8.79422 63.6914 10.9261 63.5582 11.9921L59.1611 21.9855C58.0951 19.3206 55.8832 13.751 55.5634 12.7916C55.1637 11.5924 54.764 11.1926 54.764 9.99343C54.764 9.03406 55.8299 8.79422 56.3629 8.79422V7.99474Z" fill="black"/>
<path d="M31.9789 7.99474H23.9841V8.79422C26.2227 8.79422 26.7823 10.1267 26.7823 10.7929V25.1834C26.7823 26.7824 29.1807 29.1808 33.1781 29.1808C36.376 29.1808 38.7744 26.7824 39.5739 25.5832C39.5739 28.7811 40.6398 29.3141 41.1728 29.1808L47.1689 27.9816V26.7824C45.2501 26.7824 44.7705 25.7164 44.7705 25.1834V7.99474H37.1755V8.79422C39.0942 8.79422 39.5739 10.1267 39.5739 10.7929V23.5845C39.1741 24.5172 37.7351 26.3827 35.1768 26.3827C32.6185 26.3827 31.9789 24.7837 31.9789 23.9842V7.99474Z" fill="black"/>
<path d="M13.1914 0.399414V0.413086C12.5958 0.448995 11.8489 0.566339 11.1943 0.828125C10.3947 1.14798 9.59391 1.74801 9.59375 2.79785V25.1836C9.59378 25.5806 9.70934 26.1672 10.0684 26.666C10.4423 27.1853 11.0624 27.582 11.9922 27.582H15.1865C17.3491 27.7141 21.7867 26.2926 23.4902 19.9873H23.8916L22.0615 28.7744L0.399414 28.3887V27.9678C1.06727 27.9282 1.91658 27.7887 2.65723 27.4688C3.55375 27.0813 4.39739 26.376 4.39746 25.1836V2.79785C4.39724 1.83127 3.36467 0.515616 0.399414 0.407227V0.399414H13.1914Z" fill="black" stroke="black" stroke-width="0.799474"/>
<path d="M112.326 3.21761C107.219 2.89843 105.139 6.53478 104.734 8.40345C104.328 6.53478 102.248 2.89843 97.1409 3.21761C92.0243 3.5374 90.4786 8.1477 90.3454 10.4129C90.2122 13.4773 92.9034 21.6844 104.734 29.9984C104.733 29.9989 104.732 29.9995 104.731 30H104.736C104.735 29.9995 104.734 29.9989 104.734 29.9984C116.564 21.6844 119.255 13.4773 119.122 10.4129C118.989 8.1477 117.443 3.5374 112.326 3.21761Z" fill="#D92832" stroke="#D92832" stroke-width="0.799474" stroke-linecap="round" stroke-linejoin="round"/>
<path d="M99.5393 10.8126C97.3007 10.173 95.4087 11.3456 94.7424 12.0118C94.7424 12.5448 95.1422 13.9306 96.7411 15.2097C98.3401 16.4889 101.138 15.7427 102.337 15.2097C102.337 14.0105 102.337 11.6121 99.5393 10.8126Z" fill="#FAFBF5" stroke="white" stroke-width="0.0799474" stroke-linejoin="round"/>
<circle cx="99.1427" cy="12.8076" r="1.99869" fill="#121116"/>
<path d="M107.226 13.3198C107.275 13.1153 107.447 13.1815 107.576 13.1302C107.756 13.0586 107.953 12.9435 108.146 12.8404C108.261 12.7787 108.376 12.7201 108.484 12.6755C108.701 12.5859 108.927 12.5123 109.152 12.4493C109.163 12.4461 109.175 12.4586 109.18 12.4572C109.2 12.4517 109.224 12.4421 109.25 12.4319C109.288 12.417 109.327 12.4008 109.357 12.3938C109.46 12.3681 109.64 12.3203 109.739 12.3135C109.781 12.3104 109.823 12.3041 109.847 12.3366C109.862 12.3354 109.863 12.3014 109.867 12.2989C109.867 12.2989 109.867 12.2989 109.867 12.2989C109.879 12.2909 109.915 12.3073 109.921 12.3046C109.922 12.3042 109.911 12.282 109.93 12.2858C109.932 12.2861 109.933 12.3023 109.948 12.2998C109.951 12.2991 109.995 12.2657 110.008 12.2619C110.053 12.2486 110.166 12.25 110.221 12.2421C110.23 12.2409 110.233 12.2308 110.242 12.2294C110.247 12.2286 110.255 12.2379 110.256 12.2376C110.262 12.2364 110.283 12.1864 110.286 12.2792C110.313 12.2697 110.301 12.2406 110.299 12.2208C110.33 12.214 110.35 12.2554 110.352 12.2086C110.374 12.2068 110.396 12.2051 110.417 12.2035C110.548 12.194 110.681 12.1887 110.813 12.1881C110.813 12.1806 110.813 12.1731 110.812 12.1656C110.859 12.1938 110.873 12.1427 110.901 12.1856C110.916 12.1756 110.932 12.1657 110.948 12.1558C111.175 12.1684 111.402 12.1755 111.63 12.1951C111.817 12.2113 112.005 12.236 112.189 12.2786C112.207 12.2826 112.207 12.2991 112.235 12.306C112.266 12.3136 112.314 12.3066 112.356 12.3179C112.392 12.3277 112.44 12.3571 112.479 12.3712C112.488 12.3743 112.497 12.3666 112.498 12.3669C112.504 12.3691 112.5 12.3845 112.505 12.3867C112.512 12.3893 112.524 12.3805 112.531 12.3836C112.56 12.3953 112.593 12.4019 112.597 12.4034C112.615 12.4107 112.614 12.4269 112.615 12.4276C112.634 12.4361 112.631 12.4201 112.636 12.4226C112.661 12.4355 112.667 12.475 112.713 12.4553C112.708 12.4673 112.702 12.4793 112.697 12.4913C112.721 12.5077 112.715 12.4687 112.723 12.4647C112.726 12.4632 112.782 12.4881 112.786 12.4905C112.8 12.4984 112.795 12.5148 112.796 12.5156C112.797 12.5163 112.806 12.516 112.817 12.5172C112.832 12.5187 112.85 12.5229 112.859 12.5356C112.875 12.5616 112.835 12.5837 112.838 12.5921C112.839 12.5936 112.864 12.5998 112.863 12.6114C112.862 12.6239 112.842 12.6153 112.84 12.6201C112.839 12.6234 112.864 12.66 112.851 12.6727C112.84 12.6859 112.802 12.6477 112.789 12.6512C112.787 12.6518 112.782 12.6721 112.781 12.6722C112.779 12.6723 112.771 12.6698 112.76 12.6658C112.727 12.6542 112.667 12.6322 112.664 12.6286C112.673 12.6218 112.681 12.615 112.69 12.6082C112.683 12.6047 112.676 12.6011 112.669 12.5976C112.682 12.5943 112.695 12.5911 112.708 12.5879C112.719 12.5098 112.644 12.5662 112.63 12.6019C112.624 12.6184 112.637 12.6714 112.602 12.6873C112.604 12.6929 112.607 12.6986 112.609 12.7043C112.62 12.7002 112.631 12.696 112.641 12.6919C112.637 12.6855 112.633 12.6791 112.63 12.6727C112.633 12.6684 112.637 12.6641 112.641 12.6598C112.659 12.6573 112.678 12.6548 112.696 12.6525C112.703 12.6592 112.696 12.6733 112.7 12.6782C112.74 12.7232 112.736 12.7019 112.748 12.6965C112.752 12.6945 112.758 12.6946 112.77 12.701C112.773 12.7114 112.776 12.7218 112.779 12.7321C112.79 12.6987 112.802 12.7269 112.831 12.7226C112.824 12.7319 112.817 12.7413 112.81 12.7506C112.847 12.7588 112.892 12.8402 112.898 12.775C112.904 12.7832 112.909 12.7914 112.915 12.7997C112.926 12.7931 112.936 12.7866 112.947 12.7801C112.955 12.7852 112.964 12.7903 112.973 12.7954C112.97 12.8004 112.968 12.8055 112.966 12.8106C112.959 12.8074 112.951 12.8042 112.944 12.8011C112.943 12.8189 112.941 12.8367 112.94 12.8544C112.946 12.8542 112.953 12.854 112.959 12.8538C112.944 12.8294 112.983 12.8187 113 12.8017C113.022 12.8028 113.022 12.8346 113.027 12.8387C113.03 12.8405 113.087 12.8109 113.049 12.8551C113.07 12.8575 113.09 12.8596 113.111 12.8621C113.116 12.8693 113.12 12.8765 113.125 12.8837C113.099 12.8998 113.128 12.949 113.092 12.9432C113.065 12.9391 113.07 12.9144 113.059 12.9092C113.049 12.9045 113.036 12.9168 113.025 12.9122C112.948 12.8812 112.889 12.8518 112.821 12.8155C112.807 12.8084 112.791 12.8105 112.782 12.8056C112.772 12.8001 112.793 12.7864 112.777 12.7855C112.761 12.7846 112.751 12.799 112.747 12.7978C112.745 12.7971 112.743 12.78 112.736 12.7773C112.731 12.7753 112.725 12.7735 112.719 12.7721C112.691 12.7653 112.659 12.7639 112.656 12.7626C112.651 12.7605 112.575 12.7187 112.572 12.7153C112.57 12.7133 112.592 12.6619 112.555 12.712C112.549 12.7111 112.543 12.7102 112.537 12.7094C112.541 12.6991 112.546 12.6889 112.55 12.6786C112.503 12.7074 112.522 12.6888 112.489 12.6814C112.408 12.6637 112.296 12.6213 112.208 12.6035C112.188 12.5995 112.178 12.6107 112.155 12.6061C112.134 12.6018 112.087 12.5503 112.087 12.6069C112.05 12.5496 112.025 12.6288 112.011 12.5735C112.007 12.5802 112.003 12.587 111.998 12.5937C111.979 12.557 111.965 12.5831 111.937 12.5815C111.924 12.5809 111.944 12.55 111.913 12.5828C111.909 12.5791 111.905 12.5755 111.901 12.5719C111.903 12.5639 111.906 12.556 111.908 12.5481C111.88 12.5498 111.879 12.5453 111.876 12.5763C111.864 12.5684 111.852 12.5606 111.84 12.5529C111.837 12.5626 111.833 12.5723 111.83 12.5821C111.833 12.5995 112.135 12.6301 112.177 12.6342C112.22 12.668 112.324 12.6666 112.36 12.6833C112.375 12.6899 112.375 12.7139 112.397 12.7232C112.418 12.7325 112.452 12.7214 112.464 12.7245C112.506 12.7338 112.687 12.8033 112.553 12.7863C112.553 12.7981 112.553 12.81 112.553 12.8218C112.615 12.803 112.589 12.8189 112.628 12.8374C112.645 12.8452 112.695 12.8374 112.674 12.884C112.639 12.8807 112.611 12.8531 112.584 12.8439C112.581 12.843 112.541 12.8534 112.526 12.8417C112.513 12.8311 112.539 12.7887 112.488 12.829C112.48 12.7703 112.45 12.8114 112.442 12.8142C112.428 12.8191 112.435 12.7937 112.424 12.7872C112.413 12.7801 112.399 12.7941 112.398 12.7937C112.381 12.7885 112.292 12.7651 112.29 12.754C112.295 12.7505 112.3 12.747 112.305 12.7436C112.284 12.7298 112.281 12.757 112.274 12.7584C112.27 12.7571 112.265 12.7557 112.261 12.7544C112.264 12.7495 112.267 12.7446 112.271 12.7398C112.243 12.7334 112.259 12.7577 112.22 12.7468C112.196 12.74 112.175 12.713 112.172 12.7139C112.172 12.7142 112.176 12.73 112.165 12.7294C112.148 12.7282 112.119 12.721 112.12 12.7013C112.112 12.702 112.108 12.7207 112.107 12.7209C112.102 12.7214 112.018 12.7092 112.003 12.7075C111.962 12.7019 111.917 12.689 111.872 12.6842C111.868 12.6837 111.873 12.6722 111.868 12.6717C111.861 12.671 111.82 12.6834 111.814 12.6839C111.799 12.6847 111.763 12.6714 111.757 12.676C111.756 12.6766 111.765 12.6949 111.751 12.6977C111.734 12.7009 111.746 12.6803 111.745 12.6799C111.714 12.6675 111.691 12.68 111.669 12.68C111.662 12.68 111.651 12.6617 111.64 12.6653C111.639 12.6657 111.639 12.6814 111.638 12.682C111.622 12.6881 111.612 12.6579 111.605 12.6553C111.59 12.6488 111.596 12.6709 111.595 12.671C111.59 12.6707 111.583 12.6682 111.577 12.6657C111.57 12.6632 111.562 12.6607 111.554 12.6603C111.481 12.657 111.422 12.6532 111.344 12.6467C111.335 12.6459 111.324 12.6303 111.322 12.6302C111.318 12.6301 111.318 12.6477 111.305 12.6465C111.277 12.6441 111.251 12.6437 111.223 12.6423C111.217 12.642 111.216 12.6257 111.211 12.6252C111.197 12.6236 111.147 12.6649 111.148 12.6119C111.118 12.6582 111.1 12.6175 111.077 12.6178C111.023 12.6182 110.938 12.6287 110.884 12.6244C110.873 12.6234 110.867 12.61 110.86 12.6095C110.849 12.6084 110.784 12.6188 110.781 12.617C110.774 12.6132 110.775 12.5532 110.743 12.6072C110.724 12.612 110.724 12.5874 110.72 12.5863C110.687 12.5785 110.659 12.6355 110.662 12.585C110.625 12.6013 110.603 12.631 110.583 12.5856C110.585 12.6084 110.569 12.6236 110.547 12.6169C110.565 12.5767 110.56 12.5522 110.614 12.5548C110.615 12.5549 110.615 12.5715 110.616 12.5715C110.623 12.572 110.639 12.5625 110.652 12.5624C110.665 12.5623 110.658 12.5742 110.664 12.5736C110.668 12.573 110.667 12.5572 110.674 12.5565C110.696 12.5543 110.716 12.5487 110.729 12.5477C110.737 12.5471 110.746 12.5605 110.753 12.5601C110.777 12.5586 110.827 12.5454 110.858 12.5459C110.864 12.5461 110.862 12.5618 110.876 12.5626C110.878 12.5627 110.883 12.5462 110.896 12.5425C110.908 12.5388 110.918 12.5467 110.926 12.5448C110.932 12.5433 110.929 12.5289 110.943 12.5277C110.954 12.5263 111.082 12.5363 111.089 12.5391C111.099 12.5426 111.103 12.5629 111.109 12.5606C111.11 12.56 111.113 12.5404 111.116 12.5391C111.178 12.5164 111.313 12.5487 111.384 12.554C111.453 12.5588 111.52 12.5623 111.588 12.5667C111.662 12.5715 111.736 12.5773 111.814 12.5876C111.817 12.5846 111.821 12.5817 111.824 12.5788C111.809 12.5762 111.794 12.5737 111.779 12.5712C111.78 12.5621 111.782 12.5529 111.783 12.5438C111.763 12.5392 111.762 12.5612 111.761 12.5743C111.754 12.5677 111.748 12.561 111.741 12.5544C111.73 12.5853 111.683 12.557 111.657 12.5539C111.641 12.5517 111.619 12.5615 111.611 12.5595C111.592 12.5554 111.595 12.5357 111.594 12.5352C111.593 12.5351 111.592 12.5353 111.591 12.5356C111.584 12.5379 111.561 12.5486 111.544 12.5463C111.517 12.5425 111.516 12.5118 111.476 12.5341C111.428 12.514 111.374 12.5179 111.32 12.5175C111.332 12.4899 111.283 12.5139 111.262 12.5126C111.132 12.5036 110.972 12.4911 110.839 12.4853C110.822 12.4845 110.809 12.4685 110.799 12.4695C110.794 12.47 110.793 12.4896 110.786 12.4874C110.784 12.4869 110.783 12.4687 110.769 12.4666C110.736 12.4612 110.656 12.497 110.632 12.4637C110.571 12.4714 110.51 12.4801 110.449 12.4897C110.398 12.4978 110.347 12.5065 110.297 12.5158C110.294 12.5088 110.29 12.5017 110.286 12.4947C110.27 12.5353 110.183 12.5254 110.143 12.5341C110.072 12.5488 109.983 12.5773 109.922 12.5913C109.908 12.5943 109.895 12.5859 109.882 12.5888C109.877 12.5901 109.873 12.6053 109.867 12.6065C109.804 12.6209 109.714 12.6269 109.651 12.6431C109.544 12.6702 109.443 12.6971 109.339 12.728C109.302 12.7392 109.265 12.7508 109.227 12.7631C108.905 12.868 108.597 13.0035 108.299 13.1533C108.147 13.2295 108.001 13.3082 107.853 13.3914C107.847 13.3947 107.839 13.3806 107.835 13.3831C107.808 13.398 107.754 13.4458 107.724 13.4632C107.701 13.4768 107.65 13.4802 107.655 13.5064C107.758 13.4853 107.847 13.4283 107.94 13.3878C107.947 13.3848 107.955 13.3977 107.956 13.3975C107.973 13.394 107.954 13.3807 107.974 13.368C107.982 13.3631 108.069 13.3713 108.038 13.3326C108.062 13.3414 108.179 13.2905 108.196 13.2747C108.201 13.2697 108.19 13.2592 108.191 13.2579C108.195 13.2522 108.207 13.2686 108.212 13.2665C108.226 13.2609 108.252 13.2293 108.259 13.2261C108.27 13.2207 108.302 13.2148 108.325 13.207C108.333 13.2044 108.34 13.2014 108.344 13.1981C108.361 13.1863 108.348 13.1691 108.363 13.1599C108.375 13.1527 108.369 13.1749 108.399 13.1666C108.413 13.1624 108.457 13.1284 108.469 13.123C108.481 13.1174 108.499 13.123 108.514 13.1148C108.537 13.1031 108.585 13.0742 108.607 13.0601C108.609 13.0593 108.606 13.0429 108.609 13.0417C108.617 13.0391 108.623 13.0584 108.629 13.0579C108.636 13.0569 108.73 13.0148 108.747 13.0084C108.758 13.0039 108.761 12.9897 108.768 12.9873C108.773 12.9854 108.779 13.0006 108.784 12.9988C108.786 12.9982 108.794 12.9794 108.807 12.9744C108.82 12.9696 108.872 12.964 108.878 12.9621C108.881 12.9608 108.873 12.9512 108.884 12.9474C108.894 12.944 108.905 12.9559 108.911 12.9541C108.924 12.9497 108.934 12.932 108.947 12.9269C108.986 12.9121 108.991 12.9308 108.994 12.9305C109.001 12.9298 108.997 12.9124 108.999 12.9113C109.008 12.9066 109.029 12.8954 109.037 12.892C109.047 12.8876 109.057 12.9018 109.067 12.8981C109.075 12.8953 109.086 12.8743 109.104 12.8673C109.144 12.8513 109.193 12.8318 109.234 12.8193C109.246 12.8155 109.253 12.8294 109.256 12.8286C109.276 12.8243 109.282 12.8048 109.288 12.8032C109.306 12.7982 109.333 12.7962 109.36 12.7948C109.392 12.7931 109.425 12.7921 109.445 12.7876C109.46 12.7841 109.523 12.7536 109.562 12.7457C109.566 12.7448 109.565 12.7573 109.569 12.7542C109.58 12.7469 109.573 12.7238 109.579 12.7229C109.581 12.7226 109.591 12.7341 109.6 12.7333C109.644 12.729 109.671 12.7116 109.69 12.7075C109.879 12.6683 110.073 12.637 110.252 12.613C110.272 12.6103 110.294 12.5926 110.326 12.6024C110.328 12.6097 110.33 12.617 110.332 12.6244C110.332 12.6169 110.332 12.6095 110.332 12.602C110.366 12.5936 110.377 12.5825 110.414 12.5877C110.417 12.5881 110.43 12.6211 110.431 12.5781C110.457 12.5965 110.454 12.5887 110.459 12.5802C110.46 12.5763 110.464 12.5722 110.472 12.5704C110.497 12.5648 110.523 12.5718 110.548 12.5716C110.563 12.5855 110.509 12.626 110.506 12.6263C110.5 12.6268 110.492 12.6064 110.486 12.6059C110.477 12.6051 110.469 12.6095 110.462 12.6116C110.456 12.6136 110.45 12.6135 110.448 12.6045C110.428 12.6269 110.454 12.6138 110.453 12.632C110.438 12.6263 110.422 12.6206 110.407 12.6149C110.407 12.6764 110.316 12.6076 110.327 12.6532C110.32 12.6449 110.312 12.6365 110.304 12.6281C110.284 12.69 110.262 12.6515 110.222 12.64C110.226 12.647 110.23 12.654 110.233 12.661C110.233 12.6642 110.202 12.6811 110.209 12.6478C110.181 12.6946 110.172 12.6254 110.149 12.6803C110.133 12.6897 110.138 12.6589 110.106 12.6649C110.087 12.6685 110.066 12.6878 110.045 12.6928C110.041 12.6939 110.035 12.6776 110.031 12.6784C110.027 12.6793 110.027 12.696 110.022 12.6975C110.012 12.7004 109.995 12.6917 109.989 12.6941C109.983 12.6962 109.977 12.7124 109.963 12.7175C109.913 12.7359 109.924 12.7123 109.915 12.707C109.905 12.7014 109.904 12.7297 109.886 12.7303C109.884 12.7303 109.885 12.7125 109.88 12.7144C109.875 12.7159 109.877 12.7346 109.863 12.7413C109.857 12.7437 109.765 12.7687 109.751 12.7726C109.73 12.7781 109.678 12.7745 109.656 12.7802C109.648 12.7824 109.642 12.7993 109.633 12.8016C109.603 12.809 109.554 12.8206 109.516 12.8305C109.482 12.8392 109.413 12.8247 109.403 12.8591C109.395 12.8623 109.387 12.8643 109.381 12.8654C109.35 12.8706 109.337 12.8565 109.334 12.8572C109.324 12.8593 109.324 12.8768 109.312 12.8814C109.157 12.9398 108.948 13.0032 108.804 13.0637C108.652 13.1263 108.502 13.1961 108.356 13.2698C108.178 13.3593 108.001 13.4566 107.828 13.5573C107.831 13.5643 107.834 13.5712 107.837 13.5781C107.876 13.5599 107.928 13.5445 107.965 13.5266C108.015 13.5019 108.075 13.4328 108.135 13.4589C108.122 13.4708 108.089 13.4665 108.102 13.4894C108.129 13.4769 108.156 13.4643 108.184 13.4519C108.177 13.4415 108.171 13.4312 108.164 13.4209C108.19 13.4029 108.221 13.39 108.247 13.3744C108.252 13.3717 108.243 13.3636 108.247 13.3614C108.252 13.3589 108.254 13.3706 108.255 13.3702C108.267 13.3642 108.265 13.3522 108.267 13.3516C108.271 13.3501 108.273 13.3613 108.285 13.3585C108.307 13.3534 108.309 13.3204 108.326 13.3657C108.332 13.3625 108.339 13.3592 108.345 13.3559C108.341 13.3434 108.337 13.3308 108.333 13.3183C108.357 13.3284 108.369 13.322 108.377 13.313C108.391 13.2978 108.395 13.2741 108.429 13.3091C108.431 13.2955 108.433 13.2819 108.436 13.2683C108.446 13.2781 108.455 13.2879 108.465 13.2978C108.461 13.2873 108.457 13.2768 108.453 13.2662C108.496 13.255 108.534 13.2227 108.572 13.207C108.599 13.1959 108.607 13.1972 108.631 13.186C108.683 13.1611 108.639 13.2044 108.693 13.2074C108.685 13.1957 108.677 13.1841 108.67 13.1725C108.675 13.1647 108.68 13.1569 108.686 13.1491C108.695 13.1572 108.705 13.1653 108.714 13.1735C108.714 13.1104 108.747 13.1476 108.75 13.1464C108.752 13.1453 108.747 13.1093 108.785 13.1257C108.756 13.086 108.806 13.1171 108.808 13.1164C108.811 13.1156 108.838 13.0931 108.851 13.0886C108.861 13.0849 108.886 13.086 108.9 13.08C108.913 13.0745 108.906 13.0599 108.907 13.0594C108.922 13.0519 108.917 13.0676 108.928 13.0637C108.94 13.0599 108.944 13.0435 108.947 13.0437C108.949 13.0439 108.95 13.0596 108.956 13.0588C108.973 13.0567 108.996 13.0337 109.014 13.0275C109.021 13.0253 109.033 13.0344 109.04 13.0322C109.051 13.0288 109.051 13.0109 109.057 13.0091C109.06 13.0084 109.082 13.0283 109.098 13.0184C109.101 13.0165 109.092 12.9604 109.131 13.0305C109.129 13.0196 109.126 13.0088 109.123 12.998C109.173 12.9516 109.218 13.0319 109.219 12.9471C109.264 12.9415 109.245 12.9809 109.251 12.9838C109.255 12.9857 109.266 12.973 109.268 12.973C109.271 12.973 109.273 12.9827 109.276 12.9817C109.329 12.9626 109.3 12.9523 109.313 12.9354C109.346 12.8952 109.397 12.9459 109.32 12.9499C109.321 12.9553 109.323 12.9606 109.325 12.9659C109.341 12.9553 109.386 12.944 109.379 12.9757C109.374 13.0005 109.266 13.0197 109.334 13.0308C109.35 13.0334 109.35 13.0111 109.385 13.0415C109.401 13.0388 109.388 12.9894 109.415 13.0026C109.407 12.9866 109.398 12.9706 109.389 12.9547C109.394 12.9488 109.399 12.9447 109.404 12.9419C109.427 12.9297 109.46 12.9398 109.476 12.9269C109.482 12.9215 109.486 12.8322 109.503 12.9155C109.514 12.9068 109.578 12.9053 109.587 12.895C109.589 12.8925 109.581 12.8479 109.624 12.8528C109.628 12.8576 109.633 12.8623 109.637 12.8671C109.605 12.8923 109.672 12.8921 109.666 12.938C109.655 12.9208 109.624 12.9169 109.617 12.9087C109.605 12.8947 109.623 12.8678 109.595 12.8813C109.595 12.9554 109.639 12.9095 109.649 12.9774C109.679 12.9367 109.69 12.9651 109.699 12.9641C109.737 12.9598 109.758 12.9471 109.795 12.9465C109.8 12.9308 109.732 12.9265 109.726 12.9344C109.743 12.8792 109.693 12.8893 109.679 12.9232C109.674 12.9092 109.668 12.8951 109.663 12.8811C109.692 12.8819 109.72 12.8793 109.744 12.8607C109.747 12.8657 109.75 12.8708 109.753 12.8758C109.749 12.8854 109.745 12.8951 109.741 12.9048C109.767 12.9127 109.743 12.8735 109.782 12.9035C109.779 12.8869 109.776 12.8703 109.773 12.8537C109.804 12.8522 109.834 12.851 109.864 12.8499C109.872 12.8135 109.931 12.8138 109.93 12.8588C109.953 12.8571 109.92 12.8402 109.939 12.8253C109.948 12.8189 109.966 12.8139 109.972 12.8246C109.979 12.8658 109.953 12.8763 109.951 12.906C109.957 12.9137 110.076 12.86 110.074 12.9103C110.085 12.9142 110.076 12.8904 110.093 12.8807C110.14 12.8538 110.226 12.8898 110.258 12.8222C110.204 12.7954 110.195 12.834 110.159 12.8416C110.136 12.846 109.994 12.8788 110.018 12.8296C110.013 12.8361 110.009 12.8426 110.005 12.8492C109.997 12.8374 109.989 12.8256 109.981 12.8138C109.996 12.8089 110.011 12.8041 110.026 12.7993C110.032 12.8115 110.038 12.8236 110.044 12.8358C110.044 12.8263 110.044 12.8168 110.044 12.8073C110.05 12.8043 110.056 12.8013 110.062 12.7983C110.062 12.8097 110.062 12.821 110.062 12.8324C110.073 12.8325 110.083 12.8325 110.093 12.8327C110.087 12.8184 110.082 12.8041 110.077 12.7899C110.122 12.7778 110.108 12.7899 110.139 12.8131C110.158 12.8126 110.121 12.7897 110.16 12.7756C110.206 12.7595 110.182 12.8096 110.242 12.7904C110.242 12.7829 110.241 12.7753 110.241 12.7678C110.256 12.7731 110.27 12.7785 110.285 12.7839C110.282 12.775 110.279 12.7661 110.275 12.7571C110.304 12.7566 110.34 12.7338 110.354 12.7688C110.323 12.7551 110.332 12.8182 110.341 12.8289C110.351 12.8405 110.418 12.831 110.485 12.8202C110.543 12.8108 110.6 12.8006 110.62 12.7982C110.675 12.7917 110.719 12.8092 110.767 12.7751C110.732 12.7508 110.612 12.7808 110.588 12.7655C110.585 12.7639 110.581 12.7057 110.572 12.7725C110.544 12.7685 110.513 12.7754 110.481 12.7828C110.458 12.7879 110.435 12.7932 110.412 12.7953C110.411 12.7784 110.411 12.7615 110.411 12.7446C110.445 12.7712 110.468 12.7153 110.476 12.7395C110.477 12.7436 110.478 12.75 110.478 12.7595C110.486 12.7587 110.493 12.7579 110.5 12.7571C110.499 12.7459 110.498 12.7348 110.496 12.7236C110.507 12.7224 110.518 12.7213 110.529 12.7202C110.53 12.7314 110.531 12.7426 110.532 12.7538C110.541 12.7529 110.55 12.7521 110.559 12.7512C110.559 12.74 110.559 12.7287 110.559 12.7175C110.588 12.7379 110.675 12.6686 110.64 12.7386C110.652 12.7376 110.665 12.7367 110.678 12.7358C110.677 12.7275 110.677 12.7193 110.676 12.7111C110.681 12.7096 110.687 12.7082 110.692 12.7067C110.691 12.7142 110.69 12.7218 110.688 12.7293C110.713 12.7143 110.738 12.752 110.753 12.7254C110.742 12.7204 110.731 12.7154 110.72 12.7104C110.741 12.7198 110.778 12.6956 110.782 12.6954C110.792 12.6948 110.799 12.7111 110.81 12.7114C110.82 12.7117 110.818 12.699 110.82 12.6994C110.876 12.7101 110.857 12.7802 110.88 12.6974C110.884 12.7085 110.887 12.7196 110.89 12.7307C110.893 12.7213 110.896 12.7118 110.9 12.7024C110.916 12.7028 110.933 12.7034 110.949 12.7039C110.943 12.6901 110.938 12.6762 110.932 12.6623C110.956 12.6556 110.968 12.6835 110.971 12.6841C110.977 12.6856 110.98 12.668 110.982 12.668C111.083 12.6689 111.022 12.6847 111.071 12.7509C111.089 12.7251 111.072 12.699 111.069 12.6726C111.093 12.6851 111.1 12.6779 111.126 12.6798C111.132 12.6803 111.139 12.6947 111.143 12.695C111.147 12.6952 111.158 12.6804 111.167 12.6805C111.181 12.6808 111.199 12.6904 111.219 12.6909C111.235 12.6912 111.285 12.6827 111.32 12.6847C111.335 12.6856 111.331 12.6981 111.335 12.6983C111.336 12.6984 111.349 12.684 111.358 12.6846C111.429 12.689 111.5 12.7034 111.571 12.7127C111.578 12.7136 111.585 12.7144 111.592 12.7152C111.646 12.7215 111.703 12.7169 111.758 12.7267C111.769 12.7288 111.761 12.7388 111.766 12.74C111.768 12.7404 111.773 12.7215 111.79 12.7321C111.796 12.736 111.786 12.7482 111.793 12.7499C111.796 12.7507 111.8 12.7341 111.819 12.7333C111.853 12.732 111.866 12.7576 111.869 12.7574C111.875 12.7571 111.876 12.743 111.883 12.7438C111.92 12.748 111.95 12.7516 111.982 12.7571C111.997 12.7593 112.101 12.7796 112.105 12.7837C112.116 12.7922 112.098 12.818 112.114 12.8209C112.12 12.8147 112.127 12.8086 112.133 12.8025C112.127 12.7952 112.121 12.788 112.116 12.7808C112.133 12.7947 112.158 12.7872 112.173 12.7915C112.176 12.7923 112.197 12.8116 112.21 12.8135C112.203 12.8174 112.196 12.8214 112.19 12.8253C112.19 12.8304 112.191 12.8354 112.192 12.8405C112.219 12.8402 112.245 12.8476 112.271 12.8558C112.28 12.8588 112.273 12.8689 112.282 12.8719C112.335 12.8898 112.336 12.8403 112.361 12.9416C112.346 12.9283 112.28 12.9204 112.272 12.9151C112.266 12.9113 112.261 12.8314 112.25 12.9087C112.198 12.894 112.254 12.8651 112.203 12.861C112.202 12.8704 112.2 12.8798 112.199 12.8892C112.18 12.8904 112.167 12.8918 112.16 12.873C112.146 12.9165 112.095 12.8761 112.063 12.8719C112.017 12.8656 111.962 12.8653 111.917 12.8583C111.901 12.8559 111.895 12.8365 111.893 12.8362C111.891 12.8358 111.88 12.8497 111.874 12.8488C111.853 12.8451 111.792 12.8075 111.768 12.8482C111.895 12.8687 112.022 12.8953 112.146 12.9272C112.136 12.9018 112.264 12.934 112.269 12.9374C112.275 12.94 112.266 12.9531 112.267 12.9545C112.278 12.9644 112.296 12.9467 112.3 12.9479C112.303 12.9489 112.306 12.9606 112.318 12.9637C112.32 12.9643 112.323 12.9541 112.326 12.9547C112.34 12.9592 112.355 12.9638 112.369 12.9683C112.37 12.9687 112.369 12.985 112.373 12.9862C112.376 12.9874 112.385 12.9734 112.386 12.9737C112.397 12.9775 112.414 12.9939 112.425 12.9977C112.429 12.999 112.43 12.987 112.434 12.9886C112.448 12.9933 112.436 13.0134 112.454 13.0134C112.46 13.0134 112.466 12.9968 112.475 13.0026C112.482 13.0067 112.471 13.0357 112.472 13.0372C112.473 13.039 112.507 13.0247 112.508 13.0468C112.472 13.0909 112.527 13.0564 112.533 13.0346C112.541 13.0436 112.549 13.0526 112.557 13.0616C112.562 13.0575 112.567 13.0534 112.573 13.0494C112.583 13.0617 112.592 13.0696 112.602 13.0755C112.623 13.0883 112.646 13.091 112.671 13.107C112.673 13.1082 112.7 13.1334 112.696 13.1402C112.671 13.145 112.651 13.1376 112.648 13.1088C112.611 13.1443 112.622 13.1124 112.591 13.1035C112.59 13.1031 112.589 13.1028 112.587 13.1025C112.575 13.1002 112.569 13.1123 112.568 13.112C112.522 13.1013 112.451 13.0823 112.433 13.0355C112.421 13.0426 112.45 13.0568 112.436 13.0601C112.428 13.061 112.27 13.0243 112.333 12.9972C112.327 12.9968 112.322 12.9964 112.316 12.996C112.299 13.0347 112.276 13.0179 112.291 12.9785C112.286 12.9861 112.281 12.9936 112.276 13.0011C112.269 13.0067 112.263 13.0087 112.254 13.0087C112.222 13.007 112.042 12.9462 112.031 12.951C112.029 12.9606 112.026 12.9703 112.024 12.9799C112.101 13.0093 112.186 13.0058 112.264 13.0586C112.264 13.0489 112.265 13.0392 112.265 13.0295C112.296 13.0522 112.326 13.0753 112.356 13.0987C112.315 13.103 112.254 13.0993 112.22 13.0752C112.214 13.0709 112.222 13.0598 112.221 13.0579C112.218 13.0528 112.208 13.0732 112.192 13.0713C112.177 13.0692 112.144 13.0439 112.141 13.0434C112.134 13.0426 112.11 13.063 112.099 13.0599C112.084 13.0558 112.098 13.0428 112.095 13.0417C112.084 13.0371 112.071 13.0421 112.062 13.0387C112.048 13.0335 112.025 12.9992 112.006 13.0373C112.015 13.0414 112.025 13.0456 112.035 13.0498C111.978 13.0516 111.945 12.9904 111.882 13.0195C111.86 13.0662 111.906 13.0683 111.865 13.0819C111.871 13.0825 111.878 13.0831 111.885 13.0838C111.889 13.0739 111.893 13.0639 111.896 13.054C111.906 13.0637 111.917 13.0734 111.927 13.0832C111.925 13.0734 111.924 13.0635 111.923 13.0537C111.966 13.0555 112.01 13.0559 112.013 13.1081C112.016 13.0965 112.02 13.0849 112.024 13.0733C112.058 13.0964 112.129 13.0615 112.101 13.1241C112.104 13.1211 112.106 13.1181 112.109 13.1151C112.129 13.1345 112.126 13.1049 112.135 13.1042C112.138 13.1039 112.179 13.1301 112.154 13.144C112.193 13.1707 112.197 13.1064 112.21 13.1071C112.229 13.1449 112.292 13.1151 112.257 13.1561C112.26 13.1591 112.264 13.1621 112.267 13.1651C112.292 13.1321 112.293 13.1782 112.303 13.1968C112.307 13.1992 112.312 13.2016 112.317 13.204C112.324 13.1926 112.331 13.1812 112.339 13.1699C112.365 13.2441 112.405 13.078 112.38 13.2207C112.374 13.2277 112.368 13.2347 112.362 13.2417C112.353 13.2429 112.344 13.2442 112.335 13.2455C112.365 13.2594 112.395 13.2736 112.424 13.288C112.445 13.3313 112.474 13.3153 112.502 13.3363C112.507 13.3403 112.512 13.3457 112.517 13.3531C112.523 13.3512 112.528 13.3492 112.533 13.3472C112.518 13.3757 112.504 13.3653 112.527 13.3901C112.521 13.4123 112.501 13.4075 112.499 13.3877C112.498 13.3829 112.522 13.3736 112.502 13.3651C112.492 13.3608 112.498 13.3797 112.486 13.3785C112.482 13.3781 112.475 13.3755 112.466 13.3693C112.466 13.3751 112.465 13.381 112.465 13.3868C112.46 13.3849 112.456 13.3831 112.452 13.3813C112.452 13.3677 112.453 13.354 112.453 13.3404C112.436 13.3541 112.422 13.3766 112.4 13.3629C112.409 13.3576 112.41 13.33 112.398 13.3263C112.395 13.3351 112.391 13.3439 112.388 13.3528C112.358 13.3486 112.377 13.3261 112.347 13.3382C112.347 13.3304 112.347 13.3225 112.347 13.3147C112.324 13.3392 112.27 13.3437 112.293 13.3027C112.266 13.3409 112.244 13.313 112.244 13.2756C112.241 13.2842 112.237 13.2929 112.234 13.3015C112.227 13.3016 112.221 13.3017 112.215 13.3019C112.214 13.2955 112.212 13.2892 112.211 13.2829C112.205 13.2871 112.2 13.2913 112.194 13.2956C112.195 13.2859 112.195 13.2763 112.195 13.2666C112.186 13.2755 112.176 13.2844 112.167 13.2933C112.165 13.285 112.163 13.2768 112.161 13.2685C112.156 13.2871 112.116 13.2804 112.108 13.2652C112.103 13.2698 112.099 13.2744 112.094 13.279C112.095 13.2696 112.096 13.2602 112.096 13.2509C112.092 13.2574 112.088 13.2639 112.083 13.2704C112.08 13.2618 112.076 13.2532 112.072 13.2446C112.038 13.2827 112.048 13.244 112.042 13.2429C112.033 13.241 111.993 13.2607 111.988 13.258C111.983 13.2553 111.984 13.2388 111.98 13.2363C111.913 13.1946 111.933 13.2443 111.917 13.2477C111.909 13.2497 111.906 13.2336 111.899 13.2338C111.886 13.2338 111.822 13.2415 111.819 13.239C111.814 13.2353 111.84 13.1671 111.82 13.1821C111.812 13.2198 111.784 13.175 111.791 13.2309C111.777 13.2236 111.763 13.2164 111.75 13.2093C111.744 13.2546 111.731 13.2225 111.711 13.2218C111.682 13.2206 111.616 13.2413 111.625 13.1953C111.616 13.205 111.608 13.2148 111.6 13.2245C111.573 13.2113 111.544 13.2106 111.515 13.2108C111.498 13.2109 111.481 13.2113 111.465 13.2098C111.331 13.1978 111.185 13.1802 111.049 13.1708C111.042 13.1703 111.043 13.155 111.039 13.1546C111.014 13.1528 110.95 13.1643 110.915 13.162C110.904 13.1612 110.898 13.1465 110.894 13.1459C110.882 13.1439 110.886 13.1635 110.88 13.1631C110.871 13.1624 110.825 13.146 110.809 13.145C110.801 13.1444 110.792 13.1605 110.783 13.1562C110.782 13.1559 110.782 13.1397 110.782 13.1395C110.765 13.1384 110.776 13.1518 110.77 13.1514C110.729 13.1485 110.686 13.1512 110.641 13.1517C110.63 13.1517 110.613 13.1419 110.603 13.1417C110.6 13.1417 110.607 13.1533 110.595 13.1534C110.59 13.1535 110.587 13.1378 110.583 13.1372C110.561 13.1349 110.56 13.1864 110.538 13.1474C110.533 13.1484 110.527 13.1496 110.521 13.1511C110.487 13.1593 110.441 13.1745 110.415 13.1783C110.407 13.1793 110.402 13.1705 110.396 13.1716C110.391 13.1724 110.384 13.188 110.376 13.1892C110.368 13.1904 110.354 13.1785 110.339 13.1811C110.324 13.1839 110.305 13.1951 110.302 13.1956C110.297 13.1962 110.293 13.1793 110.288 13.1801C110.276 13.1827 110.244 13.2053 110.227 13.2099C110.21 13.2149 110.198 13.2084 110.192 13.2097C110.186 13.2109 110.182 13.2266 110.18 13.2272C110.176 13.2281 110.172 13.2113 110.167 13.2123C110.158 13.2141 110.152 13.2263 110.139 13.229C109.934 13.2721 109.732 13.3145 109.531 13.3635C109.514 13.3678 109.496 13.3722 109.478 13.3766C109.454 13.3828 109.444 13.3985 109.408 13.4045C109.393 13.407 109.393 13.3881 109.383 13.395C109.379 13.3981 109.384 13.411 109.378 13.4137C109.352 13.4256 109.315 13.4242 109.304 13.4285C109.299 13.4302 109.299 13.4471 109.289 13.4506C109.219 13.4769 109.131 13.5045 109.057 13.5367C109.017 13.554 108.959 13.5863 108.914 13.6064C108.807 13.6545 108.692 13.7044 108.592 13.7535C108.575 13.7619 108.558 13.7704 108.542 13.7788C108.374 13.8655 108.218 13.9692 108.051 14.053C108.144 14.0399 108.244 13.9769 108.332 13.9331C108.423 13.8879 108.515 13.8395 108.61 13.7909C108.776 13.7062 108.945 13.6231 109.117 13.5573C109.212 13.5213 109.33 13.478 109.438 13.4527C109.443 13.4516 109.449 13.4368 109.46 13.4347C109.462 13.4343 109.496 13.4471 109.505 13.4445C109.484 13.4093 109.531 13.432 109.541 13.4278C109.544 13.4268 109.546 13.4252 109.549 13.4231C109.563 13.4135 109.585 13.3947 109.615 13.3958C109.647 13.397 109.643 13.4141 109.645 13.4145C109.657 13.4175 109.654 13.3928 109.661 13.3882C109.691 13.3686 109.866 13.3382 109.913 13.329C109.926 13.3263 109.93 13.3415 109.932 13.3409C109.94 13.3393 109.947 13.3219 109.959 13.3193C109.98 13.3147 110.008 13.3239 110.019 13.3215C110.047 13.3157 110.097 13.2879 110.134 13.2807C110.144 13.2786 110.146 13.2947 110.151 13.2938C110.171 13.2896 110.221 13.2613 110.247 13.257C110.288 13.2498 110.332 13.2536 110.374 13.2424C110.377 13.2492 110.381 13.256 110.385 13.2628C110.388 13.2547 110.391 13.2465 110.394 13.2384C110.439 13.2359 110.483 13.2254 110.528 13.2165C110.555 13.2111 110.582 13.2064 110.608 13.2043C110.617 13.2036 110.658 13.2139 110.665 13.2135C110.671 13.213 110.675 13.1946 110.683 13.1966C110.695 13.1994 110.687 13.2343 110.705 13.2232C110.71 13.2202 110.704 13.2059 110.714 13.2006C110.718 13.1987 110.783 13.1887 110.787 13.1896C110.793 13.191 110.8 13.2221 110.801 13.2227C110.809 13.2258 110.808 13.2018 110.813 13.1993C110.828 13.1919 110.85 13.2073 110.852 13.2068C110.883 13.201 110.94 13.1802 110.973 13.1912C110.977 13.1927 110.977 13.2107 110.978 13.2112C110.983 13.2149 110.986 13.1944 110.99 13.1939C111.016 13.1913 111.057 13.205 111.083 13.2088C111.086 13.2093 111.092 13.1995 111.098 13.2005C111.128 13.2065 111.118 13.2222 111.119 13.2229C111.123 13.2246 111.131 13.2074 111.142 13.2066C111.17 13.2043 111.223 13.2087 111.253 13.2117C111.275 13.2139 111.273 13.2338 111.275 13.2342C111.278 13.2351 111.288 13.2197 111.302 13.2189C111.331 13.2171 111.327 13.2326 111.338 13.2327C111.339 13.2328 111.339 13.2174 111.352 13.2167C111.377 13.2154 111.431 13.2352 111.457 13.2372C111.467 13.2379 111.471 13.2235 111.482 13.2243C111.49 13.2249 111.501 13.2295 111.512 13.2343C111.524 13.2399 111.535 13.2459 111.537 13.2461C111.538 13.2462 111.542 13.2295 111.546 13.2301C111.552 13.2308 111.556 13.2401 111.56 13.2405C111.582 13.243 111.625 13.2191 111.606 13.2776C111.615 13.2638 111.624 13.25 111.634 13.2362C111.68 13.246 111.728 13.2476 111.774 13.253C111.785 13.2542 111.791 13.2671 111.8 13.2682C111.809 13.2692 111.852 13.2582 111.858 13.2592C111.87 13.2608 111.936 13.2731 111.944 13.2764C111.959 13.2826 111.969 13.3105 111.976 13.3073C111.982 13.3047 111.981 13.2898 111.992 13.2883C112.01 13.2856 112.035 13.3105 112.04 13.3115C112.042 13.312 112.041 13.3002 112.062 13.3049C112.073 13.3074 112.076 13.3207 112.08 13.3217C112.082 13.322 112.085 13.3024 112.106 13.311C112.121 13.317 112.124 13.3335 112.125 13.334C112.127 13.3347 112.138 13.3208 112.147 13.3241C112.169 13.3317 112.205 13.3617 112.225 13.3696C112.229 13.3711 112.234 13.352 112.249 13.3589C112.261 13.3638 112.254 13.378 112.258 13.38C112.265 13.3831 112.281 13.3683 112.296 13.3739C112.316 13.3805 112.449 13.4492 112.454 13.4576C112.454 13.458 112.454 13.4584 112.455 13.4588C112.458 13.4631 112.463 13.4657 112.462 13.4738C112.457 13.4806 112.452 13.4874 112.447 13.4941C112.446 13.4907 112.445 13.4879 112.444 13.4857C112.436 13.4658 112.433 13.4931 112.427 13.4929C112.418 13.4926 112.389 13.4773 112.379 13.4814C112.375 13.4829 112.375 13.5013 112.358 13.5046C112.34 13.5081 112.344 13.4768 112.324 13.5143C112.318 13.4627 112.281 13.5025 112.301 13.5236C112.309 13.5309 112.362 13.5586 112.407 13.5826C112.433 13.5966 112.457 13.6091 112.466 13.614C112.487 13.6248 112.532 13.6301 112.558 13.6447C112.573 13.6532 112.61 13.6725 112.599 13.6922C112.612 13.701 112.606 13.6741 112.611 13.6726C112.619 13.6694 112.656 13.7035 112.664 13.7069C112.704 13.7228 112.766 13.7256 112.791 13.7708C112.786 13.7751 112.781 13.7795 112.777 13.7839C112.763 13.7891 112.731 13.7548 112.714 13.7783C112.771 13.8071 112.829 13.8386 112.884 13.87C112.895 13.8479 112.964 13.8891 112.962 13.9008C112.955 13.9102 112.947 13.9196 112.94 13.929C112.924 13.8672 112.897 13.9205 112.887 13.8781C112.877 13.8716 112.87 13.8904 112.863 13.8907C112.793 13.8935 112.882 13.8551 112.834 13.848C112.832 13.8795 112.794 13.8703 112.777 13.8655C112.774 13.8643 112.732 13.8344 112.727 13.8321C112.696 13.8187 112.638 13.8076 112.615 13.7794C112.592 13.7665 112.57 13.7788 112.547 13.7733C112.529 13.7692 112.539 13.7583 112.532 13.7547C112.516 13.7471 112.493 13.7845 112.507 13.7247C112.493 13.7268 112.479 13.729 112.465 13.7313C112.468 13.7227 112.472 13.714 112.476 13.7054C112.469 13.7025 112.462 13.6996 112.455 13.6967C112.449 13.7045 112.444 13.7123 112.438 13.7201C112.421 13.6992 112.438 13.682 112.444 13.6557C112.44 13.6521 112.436 13.6484 112.431 13.6448C112.42 13.6621 112.409 13.6796 112.397 13.697C112.388 13.6924 112.378 13.6878 112.368 13.6833C112.357 13.6779 112.346 13.6727 112.334 13.6675C112.336 13.6582 112.338 13.6489 112.34 13.6397C112.337 13.6484 112.333 13.6571 112.33 13.6659C112.292 13.654 112.256 13.6431 112.217 13.6324C112.203 13.6432 112.259 13.6741 112.262 13.6766C112.285 13.6896 112.356 13.6999 112.344 13.7312C112.346 13.7295 112.349 13.7281 112.352 13.7272C112.376 13.7185 112.412 13.741 112.414 13.7711C112.394 13.7607 112.373 13.7505 112.352 13.7405C112.349 13.7512 112.346 13.7619 112.342 13.7726C112.341 13.7676 112.34 13.7631 112.339 13.759C112.33 13.7208 112.322 13.7238 112.285 13.7508C112.29 13.7368 112.295 13.7227 112.3 13.7087C112.263 13.7505 112.259 13.6554 112.236 13.7157C112.228 13.7073 112.219 13.6988 112.21 13.6904C112.185 13.6905 112.205 13.7482 112.124 13.702C112.118 13.6989 112.124 13.6836 112.115 13.6819C112.112 13.6814 112.09 13.6996 112.062 13.6889C112.058 13.6872 112.062 13.6735 112.057 13.6704C112.048 13.6632 112.019 13.6842 112.041 13.6429C112.001 13.618 112.009 13.6592 111.992 13.67C111.98 13.6772 111.989 13.6515 111.98 13.6554C111.968 13.6603 111.969 13.6884 111.934 13.6666C111.938 13.6659 111.943 13.6652 111.948 13.6645C111.948 13.6567 111.947 13.649 111.947 13.6413C111.921 13.6531 111.929 13.6283 111.909 13.6663C111.898 13.6445 111.884 13.6397 111.862 13.6381C111.818 13.6351 111.83 13.6837 111.794 13.6143C111.785 13.621 111.775 13.6277 111.766 13.6345C111.756 13.6144 111.771 13.5946 111.752 13.5864C111.759 13.6326 111.721 13.6089 111.707 13.6465C111.708 13.6371 111.709 13.6278 111.71 13.6184C111.706 13.6176 111.702 13.6169 111.697 13.6161C111.696 13.6235 111.695 13.6309 111.693 13.6383C111.689 13.6317 111.684 13.6252 111.679 13.6186C111.673 13.6252 111.668 13.6318 111.662 13.6384C111.658 13.6218 111.653 13.6051 111.648 13.5884C111.644 13.5866 111.64 13.5848 111.635 13.583C111.635 13.5943 111.635 13.6056 111.634 13.6168C111.629 13.6122 111.624 13.6076 111.619 13.603C111.623 13.6222 111.615 13.6428 111.597 13.6395C111.583 13.6369 111.605 13.6014 111.571 13.6126C111.568 13.6134 111.561 13.6398 111.53 13.64C111.494 13.6404 111.514 13.623 111.507 13.6215C111.506 13.6213 111.493 13.6336 111.483 13.6343C111.477 13.6347 111.472 13.623 111.472 13.623C111.47 13.623 111.469 13.6258 111.467 13.6291C111.465 13.6334 111.463 13.6385 111.46 13.6385C111.447 13.6385 111.431 13.629 111.418 13.6285C111.412 13.6283 111.406 13.637 111.404 13.6369C111.4 13.6366 111.396 13.622 111.392 13.6217C111.377 13.6206 111.351 13.6657 111.35 13.5999C111.331 13.6587 111.307 13.584 111.306 13.6245C111.268 13.6061 111.165 13.6513 111.17 13.5838C111.147 13.6412 111.15 13.5992 111.141 13.5998C111.131 13.6005 111.136 13.6119 111.128 13.6112C111.109 13.6096 111.091 13.6045 111.072 13.6041C111.075 13.5948 111.078 13.5855 111.081 13.5763C111.061 13.5731 111.068 13.5948 111.047 13.5989C111.01 13.6065 111.026 13.5892 111.02 13.5648C111.022 13.5883 110.978 13.585 110.973 13.5821C110.971 13.5802 110.982 13.5497 110.955 13.5599C110.957 13.5692 110.958 13.5786 110.96 13.5879C110.947 13.5753 110.914 13.5924 110.908 13.5894C110.906 13.588 110.889 13.5133 110.878 13.5733C110.876 13.564 110.874 13.5548 110.872 13.5455C110.859 13.5573 110.845 13.5691 110.831 13.581C110.828 13.5643 110.825 13.5477 110.822 13.531C110.817 13.5312 110.813 13.5315 110.808 13.5317C110.812 13.5465 110.816 13.5612 110.819 13.576C110.791 13.5706 110.759 13.5964 110.749 13.5465C110.744 13.5563 110.738 13.566 110.733 13.5758C110.728 13.5593 110.723 13.5429 110.717 13.5265C110.69 13.5329 110.69 13.5441 110.672 13.5635C110.672 13.5504 110.672 13.5373 110.671 13.5242C110.659 13.5437 110.634 13.5631 110.614 13.5674C110.605 13.5694 110.586 13.5532 110.584 13.5551C110.583 13.5563 110.576 13.5856 110.569 13.5921C110.565 13.5959 110.561 13.5917 110.558 13.5693C110.527 13.6 110.509 13.5743 110.496 13.5767C110.487 13.5783 110.485 13.5934 110.475 13.5962C110.461 13.6002 110.446 13.5951 110.438 13.5972C110.433 13.5985 110.434 13.6128 110.431 13.6137C110.416 13.618 110.423 13.6022 110.407 13.6055C110.406 13.6059 110.396 13.6249 110.383 13.6247C110.375 13.6246 110.353 13.6081 110.351 13.6085C110.343 13.61 110.356 13.6479 110.323 13.6071C110.325 13.6144 110.327 13.6217 110.328 13.6289C110.3 13.6529 110.289 13.6209 110.282 13.6197C110.282 13.6197 110.276 13.6337 110.271 13.6328C110.263 13.6311 110.257 13.6143 110.255 13.6139C110.248 13.6123 110.229 13.6236 110.212 13.6094C110.224 13.6582 110.181 13.6846 110.159 13.631C110.153 13.6436 110.147 13.6563 110.141 13.669C110.135 13.6606 110.129 13.6522 110.124 13.6438C110.123 13.6534 110.123 13.663 110.122 13.6726C110.106 13.655 110.09 13.6374 110.073 13.6199C110.077 13.6402 110.08 13.6605 110.084 13.6808C110.08 13.6793 110.076 13.6777 110.072 13.6761C110.066 13.6607 110.06 13.6453 110.054 13.6299C110.05 13.6339 110.047 13.6379 110.043 13.6419C110.045 13.6537 110.046 13.6655 110.048 13.6773C110.028 13.6957 110.014 13.5829 109.993 13.6897C109.984 13.6822 109.975 13.6747 109.966 13.6672C109.969 13.7133 109.948 13.6899 109.938 13.6977C109.931 13.7032 109.935 13.7206 109.924 13.7237C109.914 13.7268 109.91 13.71 109.909 13.7101C109.9 13.7113 109.897 13.7278 109.889 13.7265C109.888 13.7264 109.881 13.7071 109.872 13.708C109.863 13.709 109.863 13.7314 109.85 13.7307C109.843 13.7304 109.836 13.7142 109.83 13.7143C109.801 13.7144 109.797 13.8061 109.749 13.712C109.748 13.7259 109.727 13.7796 109.712 13.7811C109.689 13.7836 109.692 13.7616 109.682 13.7606C109.681 13.7604 109.676 13.769 109.657 13.7734C109.656 13.7736 109.656 13.7741 109.656 13.7748C109.655 13.7779 109.657 13.785 109.657 13.7853C109.635 13.7916 109.591 13.7959 109.567 13.8019C109.565 13.8024 109.564 13.8364 109.532 13.8015C109.514 13.8408 109.439 13.7937 109.419 13.8518C109.414 13.8545 109.404 13.8458 109.402 13.847C109.384 13.8572 109.403 13.8871 109.342 13.8551C109.352 13.8705 109.347 13.8893 109.332 13.8933C109.31 13.8994 109.314 13.8627 109.297 13.8717C109.3 13.8804 109.304 13.8892 109.307 13.8979C109.258 13.8893 109.265 13.9297 109.226 13.9451C109.211 13.9507 109.182 13.94 109.179 13.9413C109.178 13.9419 109.17 13.969 109.169 13.9698C109.161 13.9738 109.152 13.9661 109.145 13.969C109.121 13.9785 109.105 14.0172 109.089 13.966C109.087 13.9791 109.085 13.9922 109.083 14.0052C109.036 13.9632 109.048 14.0434 109.021 13.9949C109.021 14.0073 109.021 14.0196 109.022 14.032C108.94 14.0627 108.856 14.0963 108.776 14.1305C108.752 14.1409 108.728 14.1516 108.704 14.1622C108.707 14.1801 108.661 14.197 108.657 14.1957C108.641 14.19 108.634 14.1499 108.617 14.1688C108.623 14.1851 108.628 14.2013 108.634 14.2176C108.609 14.2366 108.614 14.2149 108.598 14.2103C108.595 14.2145 108.603 14.2254 108.597 14.2294C108.567 14.2513 108.504 14.2866 108.469 14.3078C108.462 14.3119 108.457 14.3006 108.455 14.3018C108.449 14.3053 108.445 14.3254 108.434 14.3322C108.361 14.374 108.256 14.4282 108.179 14.4631C108.174 14.4654 108.165 14.4536 108.162 14.455C108.157 14.457 108.154 14.4734 108.148 14.4756C108.143 14.4776 108.134 14.4703 108.129 14.4723C108.104 14.4819 108.087 14.5165 108.046 14.5047C108.043 14.5034 107.985 14.4724 107.982 14.4696C107.966 14.4533 107.966 14.4085 107.911 14.4064C107.926 14.36 107.886 14.3246 107.83 14.3341C107.846 14.3139 107.864 14.2933 107.881 14.2728C107.878 14.2678 107.874 14.2627 107.871 14.2577C107.834 14.2465 107.808 14.2525 107.777 14.2713C107.775 14.2661 107.773 14.2608 107.77 14.2556C107.778 14.2141 107.809 14.1858 107.806 14.1405C107.76 14.1374 107.712 14.1367 107.666 14.135C107.665 14.1303 107.664 14.1256 107.663 14.1209C107.67 14.1011 107.698 14.0725 107.704 14.0547C107.728 13.9868 107.644 14.0592 107.644 14.0282C107.696 13.9918 107.744 13.9603 107.797 13.9256C107.787 13.9082 107.564 14.0011 107.533 13.9564C107.546 13.9419 107.56 13.9272 107.574 13.9125C107.559 13.9061 107.543 13.8997 107.527 13.8934C107.527 13.8883 107.526 13.8832 107.525 13.8781C107.546 13.8492 107.569 13.8198 107.589 13.7921C107.511 13.8601 107.468 13.8827 107.381 13.8071C107.382 13.8031 107.382 13.7991 107.383 13.7952C107.441 13.839 107.518 13.7551 107.555 13.7133C107.533 13.703 107.503 13.7438 107.486 13.7404C107.482 13.7393 107.482 13.7214 107.472 13.7196C107.445 13.715 107.367 13.7417 107.363 13.7162C107.358 13.7001 107.454 13.6067 107.474 13.5954C107.412 13.6049 107.355 13.6364 107.289 13.6449C107.291 13.5863 107.287 13.5199 107.343 13.4774C107.349 13.4438 107.204 13.5063 107.195 13.4978C107.207 13.4711 107.22 13.4442 107.234 13.4172C107.218 13.4334 107.202 13.4497 107.186 13.4658C107.183 13.4621 107.18 13.4583 107.178 13.4546C107.211 13.403 107.233 13.3382 107.288 13.3038C107.273 13.2846 107.241 13.3091 107.226 13.3198ZM112.608 13.8392C112.6 13.8582 112.586 13.8475 112.577 13.8428C112.576 13.8469 112.576 13.8509 112.576 13.8549C112.558 13.8422 112.525 13.8185 112.508 13.8544C112.492 13.8527 112.512 13.8238 112.509 13.8182C112.508 13.816 112.482 13.8265 112.478 13.7977C112.474 13.7963 112.471 13.7949 112.467 13.7935C112.461 13.8052 112.456 13.817 112.45 13.8287C112.451 13.8121 112.453 13.7954 112.454 13.7788C112.505 13.7975 112.557 13.8177 112.608 13.8392C112.608 13.8392 112.608 13.8392 112.608 13.8392ZM112.092 13.6578C112.075 13.645 112.049 13.6255 112.045 13.6616C112.057 13.6632 112.07 13.6649 112.082 13.6666C112.086 13.6637 112.089 13.6607 112.092 13.6578ZM110.069 13.5867C110.044 13.5559 110.035 13.5892 110.006 13.589C110.008 13.5963 110.009 13.6036 110.011 13.6108C110.018 13.5908 110.05 13.596 110.069 13.5867ZM113.117 13.9747C113.118 13.9792 113.12 13.9836 113.122 13.9881C113.086 14.0126 113.1 13.9877 113.083 13.9812C113.082 13.9808 113.077 13.9887 113.077 13.9885C113.073 13.9867 113.075 13.9753 113.072 13.9733C113.066 13.9695 113.054 13.9755 113.044 13.9681C113.035 13.9623 113.045 13.9474 113.041 13.9459C113.039 13.9446 112.987 13.9692 112.981 13.9412C112.971 13.8873 113.109 13.9643 113.117 13.9747ZM113.19 14.0655C113.187 14.0635 113.184 14.0615 113.181 14.0594C113.205 14.0439 113.184 14.034 113.17 14.025C113.186 14.0039 113.208 14.0334 113.226 14.0365C113.214 14.0461 113.202 14.0558 113.19 14.0655ZM112.82 13.7705C112.834 13.7752 112.817 13.8025 112.811 13.8106C112.807 13.8084 112.803 13.8062 112.799 13.8041C112.806 13.7929 112.813 13.7817 112.82 13.7705ZM112.921 13.8141C112.906 13.8308 112.874 13.8236 112.861 13.8181C112.86 13.8178 112.87 13.8092 112.86 13.8051C112.857 13.8039 112.808 13.8272 112.838 13.7869C112.866 13.7958 112.894 13.8046 112.921 13.8141C112.921 13.8141 112.921 13.8141 112.921 13.8141ZM112.943 13.8414C112.934 13.8443 112.925 13.8473 112.917 13.8502C112.919 13.8398 112.922 13.8293 112.924 13.8189C112.931 13.82 112.939 13.8212 112.946 13.8224C112.945 13.8287 112.944 13.835 112.943 13.8414ZM108.527 13.9632C108.533 13.9723 108.54 13.9815 108.546 13.9906C108.554 13.994 108.556 13.9389 108.545 13.9345C108.539 13.9441 108.533 13.9537 108.527 13.9632ZM108.413 13.9978C108.405 13.9957 108.397 13.9935 108.39 13.9914C108.393 14.0109 108.396 14.0305 108.4 14.05C108.43 14.0474 108.464 14.0459 108.433 13.9996C108.439 13.9965 108.445 13.9934 108.451 13.9903C108.457 14.013 108.461 14.0193 108.483 14.0239C108.471 13.9942 108.495 14 108.509 13.9843C108.495 13.9896 108.481 13.995 108.467 14.0003C108.465 13.9954 108.462 13.9905 108.459 13.9855C108.49 13.9717 108.436 13.9598 108.428 13.9896C108.423 13.9839 108.418 13.9782 108.413 13.9724C108.413 13.9809 108.413 13.9894 108.413 13.9978ZM110.673 13.3103C110.668 13.305 110.664 13.2997 110.659 13.2944C110.65 13.3688 110.676 13.2968 110.702 13.353C110.692 13.3095 110.726 13.3089 110.728 13.3058C110.723 13.2913 110.718 13.2768 110.713 13.2623C110.699 13.2782 110.686 13.2942 110.673 13.3103ZM110.554 13.2705C110.562 13.2863 110.553 13.2968 110.538 13.3032C110.519 13.311 110.493 13.3127 110.48 13.3099C110.474 13.3086 110.462 13.2899 110.458 13.293C110.456 13.3006 110.455 13.3083 110.453 13.316C110.447 13.2908 110.406 13.3253 110.391 13.3415C110.388 13.3325 110.385 13.3235 110.382 13.3145C110.376 13.319 110.37 13.3236 110.364 13.3282C110.364 13.3189 110.363 13.3096 110.363 13.3002C110.359 13.312 110.356 13.3238 110.353 13.3356C110.335 13.3508 110.34 13.2988 110.328 13.3167C110.314 13.3365 110.345 13.3624 110.347 13.3819C110.36 13.3749 110.387 13.3595 110.4 13.3571C110.407 13.3558 110.404 13.3918 110.43 13.3474C110.439 13.3558 110.447 13.3642 110.455 13.3727C110.466 13.3561 110.477 13.3397 110.489 13.3232C110.493 13.3359 110.497 13.3485 110.501 13.3612C110.502 13.363 110.529 13.3301 110.526 13.3206C110.53 13.3272 110.535 13.3321 110.541 13.3357C110.556 13.3447 110.574 13.3453 110.593 13.3444C110.595 13.3371 110.596 13.3298 110.598 13.3225C110.574 13.3402 110.589 13.3158 110.581 13.303C110.575 13.2957 110.56 13.2818 110.554 13.2705ZM108.677 13.856C108.664 13.8814 108.661 13.8832 108.655 13.8825C108.65 13.8818 108.642 13.8793 108.622 13.8893C108.632 13.9029 108.643 13.9165 108.653 13.9302C108.655 13.9192 108.661 13.9114 108.666 13.9052C108.68 13.8899 108.696 13.883 108.677 13.856C108.677 13.856 108.677 13.856 108.677 13.856ZM108.294 14.1226C108.31 14.1014 108.287 14.0849 108.31 14.0619C108.31 14.0619 108.31 14.0619 108.31 14.0619C108.295 14.0684 108.28 14.0749 108.265 14.0814C108.275 14.0951 108.284 14.1088 108.294 14.1226ZM109.627 13.5274C109.652 13.5276 109.643 13.5164 109.671 13.5356C109.694 13.4962 109.669 13.508 109.661 13.4803C109.656 13.4904 109.651 13.5006 109.646 13.5108C109.622 13.4899 109.634 13.4721 109.634 13.4696C109.634 13.4696 109.634 13.4696 109.634 13.4696C109.631 13.4613 109.631 13.4594 109.623 13.4563C109.624 13.48 109.625 13.5037 109.627 13.5274ZM109.715 13.4651C109.713 13.4858 109.716 13.5104 109.74 13.5166C109.74 13.5166 109.74 13.5166 109.74 13.5166C109.73 13.4748 109.759 13.5027 109.767 13.4975C109.769 13.4924 109.77 13.4873 109.771 13.4821C109.752 13.4764 109.734 13.4707 109.715 13.4651ZM110.059 13.3421C110.069 13.3884 110.052 13.3964 110.086 13.434C110.09 13.4322 110.095 13.4304 110.1 13.4286C110.101 13.4178 110.102 13.407 110.103 13.3961C110.18 13.4683 110.171 13.3214 110.078 13.3954C110.078 13.3955 110.078 13.3955 110.078 13.3955C110.072 13.3777 110.066 13.3599 110.059 13.3421ZM109.951 13.3695C109.956 13.3939 109.961 13.4183 109.966 13.4426C109.939 13.3874 109.934 13.447 109.898 13.4122C109.897 13.4201 109.897 13.428 109.896 13.436C109.882 13.4219 109.784 13.4417 109.815 13.4734C109.828 13.4873 109.842 13.4603 109.844 13.4604C109.85 13.4607 109.863 13.4796 109.872 13.476C109.878 13.4739 109.884 13.4466 109.895 13.4438C109.921 13.4376 109.983 13.4923 110.004 13.4227C110.008 13.4295 110.012 13.4363 110.016 13.443C110.04 13.4332 110.027 13.4118 110.056 13.4345C110.048 13.3154 109.963 13.4606 109.965 13.3623C109.965 13.3623 109.965 13.3623 109.965 13.3623C109.961 13.3647 109.956 13.3671 109.951 13.3695ZM109.268 13.6075C109.259 13.5881 109.241 13.6293 109.231 13.5792C109.227 13.5993 109.224 13.6193 109.221 13.6393C109.222 13.6437 109.224 13.6481 109.226 13.6525C109.234 13.6456 109.242 13.6387 109.25 13.6318C109.253 13.6388 109.255 13.6458 109.258 13.6528C109.263 13.6222 109.324 13.6127 109.331 13.6384C109.33 13.6268 109.33 13.6152 109.329 13.6035C109.367 13.6226 109.38 13.5838 109.42 13.6018C109.419 13.5923 109.419 13.5827 109.418 13.5731C109.422 13.5797 109.426 13.5863 109.43 13.5929C109.441 13.5901 109.452 13.5873 109.464 13.5846C109.491 13.5443 109.408 13.53 109.401 13.5373C109.4 13.5383 109.406 13.5566 109.4 13.5618C109.389 13.571 109.313 13.5768 109.296 13.5966C109.291 13.5846 109.287 13.5726 109.282 13.5605C109.277 13.5761 109.273 13.5918 109.268 13.6075ZM110.207 13.3653C110.211 13.3779 110.214 13.3904 110.218 13.403C110.244 13.3853 110.263 13.3936 110.249 13.3522C110.249 13.3522 110.249 13.3522 110.249 13.3522C110.235 13.3565 110.221 13.3609 110.207 13.3653ZM112.25 13.4895C112.257 13.4646 112.248 13.4512 112.226 13.4637C112.224 13.4712 112.223 13.4786 112.221 13.486C112.236 13.4677 112.235 13.5077 112.262 13.5114C112.267 13.499 112.271 13.4866 112.275 13.4742C112.267 13.4793 112.258 13.4844 112.25 13.4895ZM110.182 13.364C110.17 13.3504 110.155 13.4009 110.171 13.4002C110.183 13.3997 110.188 13.3714 110.182 13.364ZM108.197 14.1508C108.204 14.1498 108.211 14.1489 108.218 14.1479C108.215 14.1366 108.212 14.1253 108.209 14.114C108.209 14.114 108.209 14.114 108.209 14.114C108.205 14.1263 108.201 14.1386 108.197 14.1508ZM109.549 13.5531C109.56 13.5484 109.572 13.5438 109.584 13.5392C109.593 13.5359 109.602 13.5326 109.61 13.5293C109.608 13.5223 109.607 13.5153 109.605 13.5083C109.596 13.5281 109.586 13.5258 109.579 13.5213C109.575 13.5186 109.571 13.5151 109.569 13.515C109.569 13.515 109.569 13.515 109.569 13.515C109.551 13.5143 109.535 13.5149 109.518 13.5113C109.528 13.5252 109.538 13.5392 109.549 13.5531ZM109.463 13.5321C109.482 13.5798 109.489 13.584 109.51 13.5395C109.507 13.5338 109.503 13.5282 109.5 13.5226C109.485 13.5315 109.479 13.5459 109.473 13.5195C109.47 13.5237 109.467 13.5279 109.463 13.5321ZM109.799 13.4516C109.791 13.4368 109.764 13.4608 109.767 13.4683C109.769 13.4713 109.814 13.4805 109.799 13.4516ZM112.473 13.5588C112.468 13.5527 112.463 13.5466 112.457 13.5404C112.468 13.5388 112.479 13.5371 112.49 13.5356C112.484 13.5433 112.479 13.551 112.473 13.5588ZM112.574 13.5214C112.576 13.5294 112.542 13.5654 112.566 13.5882C112.545 13.5804 112.524 13.5728 112.504 13.5654C112.516 13.5624 112.528 13.5594 112.541 13.5566C112.544 13.5437 112.548 13.5308 112.551 13.5179C112.559 13.519 112.566 13.5202 112.574 13.5214ZM112.582 13.5619C112.585 13.5248 112.644 13.5481 112.648 13.5546C112.649 13.5561 112.644 13.5828 112.643 13.589C112.635 13.585 112.626 13.5811 112.617 13.5773C112.617 13.5862 112.616 13.5952 112.616 13.6041C112.604 13.6021 112.593 13.6003 112.582 13.5985C112.589 13.5927 112.597 13.5869 112.605 13.5812C112.597 13.5747 112.59 13.5683 112.582 13.5619ZM112.344 13.4773C112.351 13.4808 112.358 13.4843 112.366 13.4878C112.369 13.475 112.372 13.4621 112.374 13.4493C112.37 13.4477 112.365 13.446 112.361 13.4444C112.355 13.4554 112.35 13.4664 112.344 13.4773ZM112.502 13.5192C112.468 13.5733 112.489 13.4336 112.505 13.4949C112.507 13.5011 112.505 13.514 112.502 13.5192ZM112.667 13.5713C112.709 13.5403 112.661 13.6297 112.652 13.593C112.652 13.5911 112.664 13.5736 112.667 13.5713ZM112.835 13.6525C112.837 13.6538 112.825 13.6844 112.857 13.6659C112.858 13.6707 112.859 13.6755 112.86 13.6803C112.846 13.69 112.786 13.6689 112.808 13.6441C112.817 13.6481 112.827 13.6469 112.835 13.6525ZM112.835 13.5158C112.826 13.5122 112.816 13.5087 112.807 13.5051C112.805 13.5158 112.804 13.5265 112.802 13.5371C112.797 13.5375 112.791 13.5379 112.786 13.5383C112.786 13.5187 112.786 13.4992 112.787 13.4796C112.807 13.4864 112.828 13.4933 112.848 13.5005C112.844 13.5056 112.839 13.5107 112.835 13.5158ZM112.606 13.3827C112.618 13.4019 112.645 13.3984 112.673 13.413C112.673 13.413 112.673 13.4131 112.673 13.4131C112.674 13.4139 112.671 13.4279 112.675 13.4304C112.679 13.4322 112.762 13.4533 112.746 13.4724C112.707 13.4781 112.71 13.4435 112.681 13.4888C112.684 13.4779 112.687 13.467 112.69 13.4562C112.67 13.4256 112.646 13.4576 112.625 13.4639C112.628 13.4561 112.632 13.4484 112.635 13.4407C112.625 13.4353 112.614 13.43 112.604 13.4247C112.603 13.4304 112.603 13.4362 112.602 13.4419C112.598 13.4403 112.595 13.4388 112.591 13.4372C112.591 13.4103 112.582 13.4 112.606 13.3827ZM112.868 13.5486C112.906 13.4954 112.966 13.577 113.007 13.5851C112.97 13.6085 112.954 13.5691 112.933 13.5576C112.893 13.5356 112.91 13.5713 112.898 13.5768C112.893 13.5796 112.889 13.5313 112.868 13.5486ZM112.537 13.3667C112.556 13.3798 112.574 13.3711 112.582 13.4002C112.579 13.4039 112.576 13.4076 112.572 13.4113C112.568 13.4049 112.522 13.3719 112.537 13.3667ZM113.051 13.6293C113.024 13.5876 113.014 13.6487 113.016 13.5998C113.03 13.6047 113.045 13.6097 113.059 13.6148C113.056 13.6196 113.053 13.6245 113.051 13.6293ZM110.088 13.1361C110.069 13.1382 110.046 13.1309 110.04 13.1569C110.053 13.158 110.066 13.1592 110.079 13.1604C110.082 13.1523 110.085 13.1442 110.088 13.1361ZM110.598 12.8258C110.593 12.8204 110.577 12.839 110.575 12.8392C110.572 12.8395 110.572 12.831 110.572 12.8289C110.549 12.8325 110.573 12.8566 110.557 12.8638C110.554 12.865 110.514 12.856 110.498 12.8589C110.495 12.8594 110.492 12.8598 110.489 12.8602C110.468 12.8634 110.447 12.8645 110.439 12.8659C110.424 12.8684 110.398 12.8914 110.373 12.8958C110.362 12.8975 110.357 12.8825 110.346 12.8843C110.279 12.8956 110.151 12.9385 110.09 12.9399C110.075 12.9402 110.058 12.9227 110.05 12.9258C110.045 12.9344 110.041 12.9429 110.036 12.9515C110.004 12.8888 110.009 12.9491 109.991 12.9594C109.979 12.9659 109.969 12.9475 109.967 12.9479C109.956 12.9507 109.952 12.9612 109.943 12.9646C109.934 12.9684 109.918 12.9627 109.914 12.9651C109.912 12.9666 109.925 12.991 109.886 12.9991C109.847 13.0075 109.807 13.0139 109.767 13.0224C109.799 13.0973 109.797 13.0411 109.813 13.0343C109.817 13.0325 109.817 13.0456 109.821 13.0442C109.831 13.0401 109.849 13.0231 109.859 13.024C109.869 13.025 109.873 13.0546 109.882 13.0412C109.883 13.0405 109.878 13.0291 109.881 13.0264C109.905 13.0002 109.919 13.0189 109.956 13.0117C109.979 13.0065 110.125 12.966 110.131 12.9735C110.165 13.0105 110.011 13.0398 109.992 13.0408C109.986 13.041 109.99 13.0264 109.983 13.025C109.981 13.0245 109.964 13.0543 109.943 13.061C109.918 13.069 109.861 13.0638 109.837 13.0703C109.715 13.102 109.592 13.1311 109.471 13.1637C109.382 13.1875 109.293 13.2135 109.206 13.244C109.201 13.2455 109.201 13.2621 109.186 13.2672C108.956 13.3486 108.716 13.4393 108.493 13.5509C108.458 13.5685 108.423 13.5866 108.389 13.605C108.336 13.6341 108.285 13.6774 108.225 13.6971C108.224 13.7107 108.223 13.7242 108.221 13.7378C108.234 13.7204 108.278 13.7254 108.281 13.7242C108.282 13.7237 108.283 13.709 108.294 13.7038C108.31 13.6964 108.322 13.7026 108.323 13.7019C108.327 13.6999 108.319 13.6909 108.322 13.689C108.351 13.6747 108.37 13.6607 108.395 13.6477C108.424 13.633 108.448 13.6451 108.458 13.6131C108.465 13.6203 108.472 13.6274 108.478 13.6346C108.477 13.6178 108.491 13.601 108.51 13.586C108.541 13.5622 108.587 13.5428 108.611 13.5329C108.624 13.5278 108.628 13.5437 108.632 13.5418C108.635 13.5405 108.625 13.5215 108.659 13.5106C108.676 13.5052 108.686 13.5176 108.694 13.5135C108.698 13.5113 108.691 13.4975 108.697 13.4947C108.734 13.4784 108.765 13.4699 108.803 13.457C108.813 13.4534 108.818 13.4653 108.82 13.4641C108.829 13.46 108.834 13.4337 108.855 13.4249C108.89 13.4104 108.96 13.3821 108.993 13.3807C108.998 13.3805 109.007 13.3935 109.01 13.3921C109.015 13.3899 109.011 13.3741 109.011 13.3737C109.027 13.3674 109.023 13.3851 109.032 13.3776C109.037 13.3736 109.036 13.3541 109.049 13.3471C109.065 13.3378 109.07 13.3597 109.076 13.3548C109.077 13.3542 109.072 13.3399 109.079 13.3367C109.105 13.3247 109.144 13.3067 109.17 13.2973C109.178 13.2947 109.187 13.3024 109.197 13.2989C109.218 13.2915 109.336 13.2445 109.348 13.2472C109.349 13.2474 109.345 13.2723 109.362 13.2661C109.364 13.2556 109.366 13.2451 109.368 13.2346C109.381 13.2462 109.394 13.2578 109.407 13.2695C109.391 13.2202 109.437 13.1972 109.452 13.248C109.458 13.2484 109.464 13.2488 109.47 13.2492C109.471 13.2221 109.476 13.2194 109.485 13.2107C109.489 13.207 109.493 13.2023 109.498 13.1944C109.504 13.2041 109.511 13.2138 109.517 13.2236C109.516 13.2162 109.515 13.2088 109.514 13.2013C109.537 13.2368 109.544 13.1921 109.546 13.1913C109.555 13.1879 109.564 13.1959 109.568 13.1944C109.583 13.1889 109.613 13.1658 109.633 13.1672C109.634 13.1673 109.638 13.1842 109.644 13.1849C109.654 13.186 109.648 13.1613 109.668 13.1867C109.669 13.1788 109.67 13.1709 109.67 13.163C109.674 13.166 109.677 13.1691 109.681 13.1721C109.696 13.166 109.712 13.1599 109.727 13.1539C109.72 13.186 109.741 13.1976 109.75 13.1713C109.754 13.1624 109.745 13.1462 109.746 13.1432C109.747 13.1389 109.82 13.1302 109.827 13.1405C109.83 13.1342 109.832 13.1279 109.834 13.1216C109.838 13.1322 109.842 13.1427 109.847 13.1533C109.847 13.149 109.848 13.1447 109.849 13.1405C109.872 13.1554 109.91 13.1001 109.92 13.1017C109.925 13.1026 109.931 13.1503 109.952 13.1407C109.95 13.1276 109.948 13.1146 109.946 13.1016C109.951 13.0986 109.956 13.0957 109.96 13.0927C109.97 13.0918 109.989 13.1112 109.992 13.1264C109.994 13.1166 109.995 13.1068 109.996 13.097C110.01 13.1252 110.051 13.1059 110.064 13.0836C110.071 13.0916 110.078 13.0997 110.085 13.1078C110.089 13.0955 110.094 13.0832 110.099 13.0709C110.114 13.0646 110.101 13.086 110.105 13.0869C110.112 13.0887 110.143 13.0512 110.147 13.0901C110.152 13.0894 110.157 13.0886 110.162 13.0878C110.163 13.0763 110.163 13.0649 110.164 13.0534C110.179 13.0899 110.192 13.0739 110.224 13.0828C110.225 13.0736 110.226 13.0644 110.227 13.0552C110.239 13.0662 110.25 13.0771 110.261 13.0881C110.261 13.0733 110.261 13.0584 110.26 13.0436C110.264 13.0409 110.268 13.0382 110.271 13.0354C110.285 13.0667 110.294 13.0292 110.304 13.0415C110.318 13.0595 110.313 13.0841 110.293 13.0917C110.298 13.1151 110.357 13.0953 110.371 13.0918C110.369 13.0873 110.368 13.0828 110.366 13.0783C110.352 13.0839 110.339 13.0896 110.325 13.0954C110.304 13.0374 110.345 13.0477 110.362 13.0376C110.364 13.0367 110.37 13.0127 110.388 13.0124C110.396 13.0123 110.427 13.0419 110.433 13.0431C110.477 13.0532 110.44 13.0095 110.486 13.0462C110.477 13.0226 110.49 13.0309 110.508 13.0322C110.513 13.0326 110.519 13.0323 110.525 13.0303C110.529 13.0287 110.562 12.9993 110.564 12.9984C110.579 12.9928 110.565 13.0225 110.586 13.0131C110.588 13.0055 110.59 12.9978 110.592 12.9902C110.597 12.9897 110.602 12.9892 110.607 12.9888C110.644 13.0522 110.647 13.003 110.657 12.9958C110.662 12.993 110.657 13.0107 110.668 13.0061C110.673 13.0045 110.676 12.9897 110.688 12.9878C110.725 12.9821 110.74 13.0429 110.77 12.9769C110.776 12.9859 110.781 12.9949 110.787 13.0039C110.79 12.9926 110.793 12.9813 110.796 12.97C110.824 13.001 110.813 12.9684 110.822 12.9683C110.848 12.9681 110.9 12.9727 110.905 12.9993C110.926 12.9374 110.953 13.0061 110.962 13.0036C110.967 12.996 110.972 12.9885 110.977 12.981C110.983 12.9884 110.989 12.9958 110.995 13.0033C110.992 12.943 111.023 13.0021 111.026 13.003C111.029 13.0038 111.077 12.9861 111.095 12.9868C111.113 12.9873 111.144 13.0043 111.146 13.0044C111.15 13.0045 111.18 12.9889 111.204 12.9899C111.225 12.9904 111.345 13.0205 111.34 12.9936C111.332 12.9856 111.321 12.9785 111.311 12.9744C111.281 12.9608 111.101 12.9407 111.054 12.9374C110.961 12.9285 110.863 12.9327 110.769 12.9321C110.763 12.9321 110.761 12.9165 110.757 12.9165C110.749 12.9164 110.732 12.9331 110.725 12.9333C110.698 12.9336 110.666 12.9335 110.652 12.9342C110.62 12.936 110.597 12.9286 110.573 12.9293C110.565 12.9295 110.53 12.9525 110.503 12.9472C110.501 12.9461 110.5 12.945 110.498 12.9439C110.495 12.9412 110.491 12.9384 110.487 12.9357C110.49 12.9344 110.493 12.9327 110.497 12.9308C110.513 12.9229 110.537 12.9116 110.55 12.9091C110.574 12.9045 110.588 12.916 110.597 12.9149C110.605 12.9141 110.642 12.8964 110.66 12.8947C110.665 12.8942 110.668 12.9104 110.672 12.91C110.698 12.9077 110.731 12.9051 110.752 12.8878C110.743 12.8935 110.8 12.9004 110.803 12.9003C110.808 12.9001 110.813 12.8845 110.823 12.8841C110.843 12.8832 110.841 12.9153 110.865 12.8824C110.871 12.8915 110.878 12.9006 110.884 12.9098C110.884 12.8669 110.962 12.923 110.983 12.8711C110.984 12.865 110.882 12.8505 110.874 12.8502C110.823 12.8467 110.75 12.861 110.7 12.8569C110.686 12.8556 110.637 12.8333 110.634 12.8341C110.628 12.8353 110.635 12.8497 110.632 12.8504C110.584 12.8656 110.606 12.8338 110.598 12.8258ZM112.663 13.3764C112.65 13.3691 112.638 13.3619 112.625 13.3547C112.63 13.3465 112.634 13.3382 112.639 13.33C112.644 13.3359 112.648 13.3419 112.653 13.3478C112.66 13.3446 112.667 13.3415 112.674 13.3384C112.67 13.3511 112.666 13.3637 112.663 13.3764ZM112.711 13.3547C112.724 13.3556 112.717 13.3739 112.719 13.3759C112.726 13.3821 112.736 13.3779 112.743 13.3817C112.715 13.4203 112.705 13.3924 112.711 13.3547ZM112.476 13.2414C112.478 13.2445 112.478 13.2983 112.515 13.262C112.518 13.2678 112.521 13.2737 112.524 13.2795C112.53 13.2934 112.537 13.3073 112.544 13.3212C112.537 13.3093 112.527 13.3031 112.516 13.2998C112.498 13.2945 112.478 13.2967 112.471 13.2933C112.466 13.2912 112.471 13.2764 112.467 13.2747C112.446 13.2655 112.413 13.2911 112.428 13.2419C112.443 13.2633 112.474 13.2375 112.476 13.2414ZM112.602 13.3098C112.602 13.3212 112.601 13.3325 112.6 13.3438C112.588 13.3388 112.575 13.3336 112.563 13.3286C112.57 13.3199 112.578 13.3112 112.585 13.3025C112.591 13.3049 112.597 13.3074 112.602 13.3098ZM111.602 13.0106C111.61 13.0118 111.618 13.0131 111.627 13.0143C111.627 13.0065 111.618 13.0053 111.615 12.9996C111.615 12.9996 111.615 12.9996 111.615 12.9996C111.612 12.9931 111.615 12.9834 111.608 12.978C111.606 12.9889 111.604 12.9998 111.602 13.0106ZM108.196 13.7134C108.182 13.72 108.067 13.7862 108.092 13.8051C108.104 13.8146 108.136 13.7814 108.148 13.7749C108.164 13.7662 108.222 13.7691 108.196 13.7134ZM107.989 13.8275C108.001 13.853 108.076 13.8137 108.08 13.8056C108.076 13.803 108.07 13.7965 108.067 13.7959C108.052 13.7932 108.008 13.8249 107.989 13.8275ZM111.132 12.8938C111.138 12.9083 111.144 12.9228 111.151 12.9374C111.149 12.9186 111.148 12.8999 111.147 12.8811C111.142 12.8853 111.137 12.8895 111.132 12.8938ZM110.483 12.9449C110.372 12.9565 110.261 12.9717 110.151 12.9902C110.159 12.9808 110.167 12.9715 110.176 12.9622C110.272 12.9485 110.374 12.9418 110.466 12.9193C110.472 12.9278 110.477 12.9364 110.483 12.9449ZM112.476 13.1517C112.449 13.1418 112.423 13.1472 112.4 13.1164C112.435 13.106 112.438 13.1417 112.476 13.1218C112.476 13.1218 112.476 13.1218 112.476 13.1218C112.476 13.1318 112.476 13.1417 112.476 13.1517ZM111.864 12.9789C111.875 12.9677 111.886 12.9565 111.897 12.9454C111.886 12.9434 111.876 12.9414 111.866 12.9394C111.865 12.9526 111.864 12.9658 111.864 12.9789ZM109.508 13.0688C109.498 13.0853 109.474 13.0884 109.449 13.091C109.42 13.094 109.391 13.0964 109.384 13.118C109.383 13.1207 109.401 13.1301 109.387 13.1639C109.402 13.1531 109.413 13.1438 109.407 13.1223C109.415 13.1279 109.422 13.1335 109.429 13.1391C109.436 13.1311 109.443 13.1231 109.449 13.1152C109.454 13.1323 109.455 13.1348 109.46 13.1255C109.461 13.1233 109.462 13.1204 109.464 13.1168C109.471 13.1204 109.479 13.1239 109.486 13.1275C109.486 13.1178 109.486 13.1082 109.486 13.0985C109.495 13.1095 109.503 13.1204 109.512 13.1314C109.528 13.112 109.509 13.0914 109.508 13.0688ZM109.611 13.0452C109.605 13.0415 109.475 13.0952 109.548 13.1198C109.563 13.1139 109.578 13.1081 109.594 13.1024C109.561 13.0361 109.622 13.0866 109.626 13.0872C109.645 13.0894 109.662 13.0669 109.675 13.0645C109.686 13.0624 109.696 13.0734 109.703 13.0711C109.728 13.0634 109.768 13.0529 109.767 13.0224C109.747 13.0267 109.726 13.0315 109.706 13.0375C109.684 13.0439 109.657 13.0216 109.626 13.0702C109.615 13.069 109.613 13.0461 109.611 13.0452ZM111.922 12.9536C111.915 12.9828 111.968 12.9867 111.971 12.9752C111.973 12.9684 111.956 12.9649 111.954 12.9618C111.954 12.9618 111.954 12.9618 111.954 12.9618C111.953 12.9604 111.961 12.9502 111.953 12.9454C111.943 12.9481 111.932 12.9508 111.922 12.9536ZM108.347 13.5561C108.334 13.543 108.188 13.6276 108.189 13.6369C108.189 13.6395 108.195 13.6452 108.196 13.6492C108.218 13.6099 108.28 13.6087 108.314 13.5932C108.323 13.5889 108.315 13.5797 108.315 13.5792C108.315 13.5792 108.315 13.5792 108.315 13.5792C108.32 13.5765 108.357 13.5907 108.347 13.5561ZM109.338 13.1472C109.346 13.1495 109.354 13.1519 109.362 13.1542C109.361 13.1448 109.36 13.1354 109.358 13.1259C109.358 13.1259 109.358 13.1259 109.358 13.1259C109.351 13.133 109.345 13.1401 109.338 13.1472ZM109.097 13.1976C109.101 13.2031 109.105 13.2087 109.108 13.2143C109.126 13.209 109.143 13.2039 109.159 13.1989C109.159 13.2029 109.159 13.207 109.158 13.2111C109.186 13.2116 109.189 13.1862 109.204 13.1846C109.204 13.1846 109.204 13.1846 109.204 13.1846C109.205 13.1845 109.212 13.1968 109.217 13.1954C109.23 13.1921 109.267 13.1849 109.267 13.1704C109.266 13.1394 109.199 13.177 109.186 13.1805C109.179 13.182 109.168 13.1732 109.165 13.1743C109.16 13.1754 109.16 13.1926 109.151 13.1956C109.148 13.1963 109.11 13.1899 109.097 13.1976ZM108.812 13.3302C108.823 13.3418 108.828 13.3242 108.833 13.3249C108.834 13.325 108.832 13.3394 108.842 13.3393C108.841 13.3304 108.84 13.3216 108.839 13.3128C108.83 13.3186 108.821 13.3244 108.812 13.3302ZM112.013 12.9586C112.012 12.9551 111.984 12.95 111.982 12.9517C111.959 12.9743 112.018 12.9843 112.013 12.9586ZM112.714 13.1511C112.717 13.1091 112.847 13.2082 112.861 13.2136C112.85 13.2356 112.827 13.1973 112.83 13.2364C112.821 13.2115 112.77 13.1993 112.761 13.1895C112.755 13.1836 112.762 13.1633 112.761 13.1622C112.758 13.1582 112.713 13.1656 112.714 13.1511ZM112.971 13.2857C112.96 13.2748 112.948 13.2639 112.937 13.2531C112.954 13.2584 112.971 13.2638 112.988 13.2693C112.982 13.2748 112.977 13.2802 112.971 13.2857ZM112.993 13.2842C113.003 13.2626 113.04 13.3024 113.055 13.3039C113.022 13.3328 113.018 13.2871 112.993 13.2842ZM112.214 12.9452C112.195 12.9237 112.167 12.9915 112.203 12.9684C112.204 12.9676 112.215 12.9463 112.214 12.9452ZM109.472 12.9723C109.468 12.9729 109.421 12.9659 109.414 12.9744C109.413 12.9751 109.413 12.9759 109.413 12.9769C109.414 12.9885 109.417 12.9944 109.421 12.9973C109.43 13.0039 109.447 12.9945 109.457 13.0018C109.481 13.0187 109.461 13.0441 109.499 13.0187C109.499 13.0263 109.499 13.034 109.5 13.0417C109.525 13.0371 109.502 12.9896 109.505 12.9819C109.506 12.9796 109.522 12.9794 109.524 12.9754C109.547 12.9255 109.476 12.9714 109.472 12.9723ZM111.642 12.8238C111.598 12.796 111.614 12.8305 111.566 12.8228C111.563 12.8389 111.634 12.8371 111.642 12.8238ZM109.925 12.8883C109.879 12.9047 109.835 12.8927 109.797 12.9313C109.81 12.9734 109.939 12.8966 109.925 12.8883ZM107.792 13.7118C107.996 13.6758 108.169 13.548 108.35 13.4555C108.369 13.4455 108.379 13.4603 108.386 13.455C108.39 13.4516 108.383 13.4393 108.389 13.4361C108.402 13.4295 108.415 13.4229 108.427 13.4164C108.636 13.3103 108.838 13.2068 109.054 13.1358C109.068 13.1309 109.148 13.1348 109.147 13.0864C109.147 13.0495 109.106 13.0927 109.098 13.0954C109.091 13.0975 109.085 13.0821 109.081 13.0836C109.077 13.0852 109.084 13.0944 109.079 13.0964C109.057 13.1051 109.032 13.1097 109.013 13.118C108.824 13.1985 108.64 13.2742 108.455 13.361C108.433 13.3714 108.432 13.3574 108.431 13.3579C108.431 13.3579 108.431 13.358 108.431 13.358C108.422 13.3621 108.414 13.3663 108.405 13.3707C108.292 13.4286 108.181 13.5149 108.063 13.5698C107.973 13.6101 107.882 13.6539 107.794 13.6988C107.793 13.7032 107.792 13.7075 107.792 13.7118ZM109.584 12.9886C109.56 12.944 109.57 12.9928 109.523 12.9853C109.521 12.9944 109.52 13.0035 109.519 13.0126C109.541 13.0045 109.563 12.9965 109.585 12.9885C109.585 12.9885 109.585 12.9885 109.584 12.9886ZM109.302 13.0544C109.274 12.9928 109.194 13.0692 109.148 13.0719C109.152 13.1062 109.208 13.0709 109.223 13.0694C109.231 13.0686 109.281 13.0884 109.304 13.0608C109.303 13.0587 109.302 13.0565 109.302 13.0544ZM112.595 12.9978C112.587 12.9971 112.58 12.9964 112.573 12.9957C112.587 13.0089 112.601 13.0223 112.616 13.0357C112.59 13.0209 112.565 13.0063 112.539 12.9921C112.549 12.9808 112.559 12.9696 112.569 12.9584C112.578 12.9715 112.586 12.9846 112.595 12.9978ZM112.504 12.9726C112.554 12.9844 112.492 13.0019 112.485 12.9823C112.482 12.9705 112.499 12.9714 112.504 12.9726ZM112.386 12.9081C112.416 12.8919 112.463 12.9055 112.431 12.9464C112.414 12.9167 112.392 12.9296 112.361 12.9061C112.369 12.8988 112.377 12.8915 112.385 12.8842C112.385 12.8842 112.385 12.8842 112.385 12.8842C112.385 12.8922 112.386 12.9001 112.386 12.9081ZM112.536 12.9525C112.558 12.9898 112.471 12.949 112.505 12.9416C112.507 12.9412 112.535 12.951 112.536 12.9525ZM107.947 13.5582C107.952 13.5739 107.973 13.561 107.981 13.5577C108.015 13.5435 108.053 13.5138 108.088 13.4971C108.083 13.4939 108.078 13.4907 108.073 13.4875C108.03 13.511 107.988 13.5346 107.947 13.5582ZM108.193 13.4404C108.217 13.4279 108.24 13.4156 108.263 13.4038C108.265 13.4027 108.269 13.3853 108.26 13.3863C108.238 13.404 108.216 13.422 108.193 13.4404ZM109.72 12.8546C109.698 12.8508 109.744 12.7925 109.753 12.8408C109.742 12.8454 109.731 12.85 109.72 12.8546ZM109.899 12.7934C109.888 12.8006 109.876 12.8079 109.865 12.8151C109.864 12.8096 109.863 12.8041 109.861 12.7986C109.874 12.7969 109.887 12.7951 109.899 12.7934ZM107.852 13.6021C107.873 13.6115 107.899 13.5924 107.917 13.5823C107.896 13.5752 107.872 13.5993 107.852 13.6021ZM109.423 12.915C109.425 12.9199 109.413 12.9261 109.4 12.9297C109.381 12.9351 109.358 12.9352 109.37 12.9171C109.379 12.9167 109.387 12.9164 109.396 12.916C109.405 12.9157 109.414 12.9153 109.423 12.915ZM109.261 12.9451C109.276 12.937 109.291 12.9373 109.293 12.958C109.285 12.9599 109.276 12.9619 109.267 12.9638C109.265 12.9576 109.263 12.9513 109.261 12.9451ZM112.311 12.8442C112.282 12.8378 112.253 12.8315 112.224 12.8257C112.227 12.8205 112.229 12.8154 112.232 12.8102C112.26 12.8159 112.288 12.822 112.315 12.8281C112.314 12.8335 112.312 12.8388 112.311 12.8442ZM107.811 13.5675C107.796 13.5812 107.781 13.5947 107.766 13.6084C107.785 13.601 107.804 13.5938 107.823 13.5866C107.819 13.5802 107.815 13.5738 107.811 13.5674C107.811 13.5675 107.811 13.5675 107.811 13.5675ZM112.719 12.9076C112.643 12.8494 112.763 12.8665 112.771 12.9119C112.771 12.9119 112.771 12.9119 112.771 12.9119C112.772 12.9158 112.761 12.9294 112.762 12.9368C112.756 12.9265 112.75 12.916 112.745 12.9056C112.733 12.9109 112.722 12.9164 112.71 12.9219C112.709 12.9174 112.708 12.913 112.707 12.9086C112.711 12.9082 112.715 12.9079 112.719 12.9076ZM113.063 13.0452C113.135 13.0854 113.041 13.0836 113.019 13.0368C113.023 13.0301 113.056 13.0415 113.063 13.0452ZM112.861 12.9608C112.848 12.9589 112.834 12.9572 112.821 12.9555C112.821 12.9505 112.822 12.9455 112.822 12.9405C112.833 12.9402 112.844 12.9398 112.855 12.9395C112.857 12.9466 112.859 12.9537 112.861 12.9608ZM112.482 12.7384C112.463 12.7269 112.421 12.7684 112.49 12.7764C112.492 12.7711 112.494 12.7657 112.495 12.7604C112.492 12.7604 112.483 12.7629 112.483 12.7623C112.482 12.7606 112.489 12.7432 112.482 12.7384ZM113.27 12.9864C113.273 12.9857 113.303 12.9343 113.296 13.0005C113.305 13.0009 113.313 13.0013 113.322 13.0018C113.317 13.0142 113.312 13.0265 113.308 13.0389C113.287 13.0157 113.271 13.0375 113.269 13.0369C113.259 13.0343 113.272 13.0259 113.267 13.0226C113.253 13.0142 113.215 13.0046 113.249 12.9784C113.261 12.9691 113.267 12.9871 113.27 12.9864ZM113.234 12.9289C113.235 12.9349 113.217 12.9448 113.217 12.9505C113.217 12.9553 113.241 12.9879 113.218 13.0092C113.214 13.0054 113.209 13.0015 113.204 12.9977C113.206 12.9896 113.208 12.9816 113.21 12.9736C113.202 12.9775 113.193 12.9814 113.185 12.9853C113.186 12.9633 113.179 12.9311 113.208 12.928C113.199 12.9253 113.191 12.9227 113.182 12.9201C113.174 12.9264 113.165 12.9328 113.157 12.9391C113.165 12.9273 113.174 12.9155 113.183 12.9038C113.2 12.912 113.217 12.9204 113.234 12.9289ZM113.474 13.071C113.469 13.0769 113.464 13.0827 113.46 13.0885C113.495 13.0936 113.542 13.1167 113.492 13.141C113.452 13.1207 113.412 13.1012 113.372 13.0825C113.373 13.0761 113.373 13.0698 113.373 13.0635C113.391 13.0987 113.429 13.014 113.44 13.0516C113.442 13.058 113.413 13.0784 113.45 13.0765C113.453 13.0695 113.456 13.0624 113.459 13.0554C113.464 13.0606 113.469 13.0658 113.474 13.071ZM113.705 13.2341C113.665 13.1932 113.732 13.2059 113.727 13.2307C113.727 13.2307 113.727 13.2307 113.727 13.2307C113.715 13.2979 113.682 13.2383 113.679 13.2366C113.674 13.2342 113.64 13.2646 113.654 13.1958C113.671 13.2084 113.688 13.2212 113.705 13.2341ZM113.559 13.1236C113.563 13.1249 113.555 13.133 113.557 13.134C113.557 13.134 113.557 13.134 113.557 13.134C113.583 13.1477 113.649 13.1787 113.635 13.2134C113.615 13.2032 113.528 13.1565 113.536 13.1327C113.544 13.1296 113.551 13.1266 113.559 13.1236ZM113.363 13.037C113.358 13.0073 113.396 13.0253 113.4 13.0403C113.401 13.0433 113.367 13.0676 113.363 13.037ZM112.056 12.4735C112.013 12.479 112.063 12.5039 112.04 12.5218C112.048 12.5216 112.056 12.5214 112.064 12.5212C112.061 12.5053 112.059 12.4894 112.056 12.4735ZM110.203 12.3873C110.194 12.3861 110.2 12.3988 110.199 12.3991C110.193 12.3997 110.186 12.3897 110.183 12.3912C110.143 12.42 110.174 12.4267 110.175 12.4292C110.178 12.4424 110.169 12.4596 110.187 12.4723C110.196 12.4661 110.205 12.46 110.213 12.4539C110.219 12.4605 110.225 12.4672 110.231 12.4739C110.248 12.4553 110.222 12.4546 110.216 12.434C110.214 12.4259 110.23 12.4134 110.203 12.3873ZM111.992 12.4148C111.981 12.4366 111.96 12.4627 111.971 12.4889C111.971 12.4889 111.971 12.4889 111.971 12.4889C111.973 12.4937 111.984 12.4984 111.987 12.5051C112.018 12.4795 112.015 12.4457 111.992 12.4148ZM110.371 12.3221C110.388 12.3257 110.404 12.3293 110.421 12.333C110.422 12.3471 110.423 12.3612 110.425 12.3752C110.416 12.3724 110.407 12.3695 110.398 12.3667C110.396 12.3735 110.394 12.3802 110.392 12.387C110.404 12.4017 110.416 12.4165 110.428 12.4314C110.432 12.4288 110.437 12.4261 110.441 12.4235C110.449 12.4192 110.456 12.4149 110.464 12.4106C110.457 12.4037 110.45 12.397 110.444 12.3902C110.474 12.3787 110.471 12.4136 110.497 12.4241C110.504 12.4103 110.511 12.3964 110.519 12.3826C110.533 12.3945 110.546 12.4064 110.56 12.4184C110.58 12.4104 110.581 12.4003 110.566 12.3866C110.575 12.3686 110.589 12.3945 110.601 12.3865C110.602 12.3859 110.598 12.37 110.599 12.3697C110.664 12.3538 110.664 12.3965 110.674 12.3975C110.682 12.3983 110.709 12.3679 110.709 12.3581C110.709 12.345 110.644 12.297 110.741 12.29C110.688 12.2569 110.633 12.2975 110.674 12.3473C110.657 12.3429 110.589 12.3613 110.584 12.3602C110.578 12.3584 110.578 12.3384 110.57 12.3385C110.565 12.3387 110.557 12.3851 110.516 12.3489C110.512 12.3569 110.507 12.3648 110.503 12.3727C110.498 12.367 110.493 12.3613 110.488 12.3557C110.495 12.3329 110.502 12.3102 110.51 12.2875C110.479 12.3115 110.448 12.2822 110.428 12.3025C110.425 12.3052 110.423 12.3088 110.421 12.3135C110.401 12.3113 110.391 12.3081 110.397 12.288C110.391 12.2887 110.385 12.2893 110.379 12.29C110.377 12.3007 110.374 12.3114 110.371 12.3221ZM111.867 12.4262C111.851 12.4013 111.836 12.4468 111.839 12.4499C111.854 12.4672 111.875 12.4391 111.867 12.4262ZM110.242 12.407C110.264 12.4161 110.287 12.4252 110.309 12.4345C110.307 12.4197 110.305 12.4049 110.303 12.3901C110.283 12.3956 110.262 12.4013 110.242 12.407ZM112.069 12.442C112.068 12.4533 112.068 12.4647 112.068 12.476C112.1 12.4411 112.11 12.5036 112.124 12.4943C112.127 12.4923 112.127 12.4719 112.123 12.4667C112.12 12.4634 112.074 12.4391 112.069 12.442ZM113.01 12.7562C112.998 12.7594 112.987 12.7626 112.976 12.7659C112.982 12.7546 112.987 12.7433 112.993 12.732C112.998 12.7316 113.003 12.7313 113.008 12.731C113.008 12.7394 113.009 12.7478 113.01 12.7562ZM112.909 12.734C112.895 12.7269 112.881 12.7198 112.867 12.7129C112.927 12.7254 112.883 12.7011 112.924 12.7003C112.919 12.7115 112.914 12.7227 112.909 12.734ZM112.77 12.65C112.775 12.6437 112.779 12.6374 112.784 12.6311C112.799 12.6369 112.814 12.6428 112.829 12.6487C112.829 12.6207 112.829 12.5927 112.829 12.5647C112.823 12.5624 112.818 12.5602 112.812 12.558C112.798 12.5887 112.784 12.6193 112.77 12.65ZM109.781 12.4082C109.772 12.4097 109.745 12.4392 109.748 12.447C109.764 12.4541 109.779 12.4612 109.794 12.4684C109.791 12.4538 109.788 12.4392 109.785 12.4245C109.788 12.4314 109.792 12.4383 109.795 12.4452C109.802 12.4381 109.808 12.431 109.814 12.4239C109.821 12.4359 109.827 12.4478 109.834 12.4598C109.834 12.4444 109.835 12.429 109.836 12.4136C109.794 12.3954 109.801 12.4211 109.793 12.4224C109.789 12.4231 109.785 12.4146 109.783 12.4104C109.782 12.4096 109.782 12.4089 109.781 12.4082ZM110.243 12.3107C110.198 12.3133 110.178 12.3561 110.141 12.3286C110.173 12.3943 110.294 12.3033 110.349 12.356C110.352 12.3443 110.356 12.3325 110.359 12.3207C110.335 12.3338 110.314 12.3131 110.302 12.3114C110.291 12.3101 110.294 12.3217 110.293 12.3216C110.293 12.3216 110.293 12.3216 110.293 12.3216C110.269 12.3199 110.26 12.3096 110.243 12.3107ZM112.114 12.3954C112.106 12.3753 112.084 12.3725 112.078 12.3979C112.088 12.4077 112.099 12.4176 112.109 12.4275C112.108 12.4205 112.115 12.3988 112.114 12.3954ZM112.779 12.5757C112.773 12.5643 112.749 12.5632 112.75 12.5876C112.75 12.592 112.777 12.5853 112.75 12.6184C112.771 12.6256 112.782 12.5822 112.779 12.5757ZM111.013 12.3071C111.021 12.3063 111.029 12.3056 111.037 12.3048C111.038 12.2944 111.04 12.2839 111.042 12.2734C111.032 12.2846 111.022 12.2959 111.013 12.3071ZM112.219 12.4014C112.218 12.4538 112.247 12.4097 112.257 12.4556C112.264 12.4578 112.271 12.4599 112.278 12.4621C112.278 12.4621 112.278 12.4621 112.278 12.4621C112.282 12.4486 112.286 12.4351 112.289 12.4217C112.266 12.4147 112.243 12.408 112.219 12.4014ZM110.517 12.3064C110.523 12.3125 110.528 12.3185 110.534 12.3245C110.542 12.3162 110.55 12.3079 110.558 12.2996C110.552 12.2946 110.547 12.2896 110.542 12.2846C110.534 12.2918 110.526 12.2991 110.517 12.3064ZM112.348 12.4302C112.324 12.4171 112.304 12.4576 112.336 12.4665C112.349 12.4702 112.373 12.4441 112.348 12.4302ZM109.319 12.5446C109.328 12.5458 109.338 12.547 109.347 12.5482C109.347 12.5384 109.347 12.5286 109.348 12.5188C109.338 12.5273 109.328 12.536 109.319 12.5446ZM112.893 12.6265C112.889 12.6347 112.884 12.643 112.88 12.6513C112.873 12.6466 112.866 12.6417 112.859 12.637C112.865 12.6291 112.87 12.6212 112.876 12.6134C112.882 12.6178 112.887 12.6221 112.893 12.6265ZM109.376 12.5339C109.383 12.5337 109.39 12.5336 109.397 12.5334C109.4 12.5278 109.404 12.5221 109.407 12.5165C109.399 12.5139 109.392 12.5113 109.385 12.5087C109.382 12.5171 109.379 12.5255 109.376 12.5339ZM112.586 12.5064C112.579 12.4924 112.53 12.5134 112.562 12.5331C112.582 12.5457 112.586 12.5085 112.586 12.5064ZM112.641 12.5134C112.611 12.4805 112.604 12.5929 112.67 12.5412C112.623 12.5351 112.643 12.5153 112.641 12.5134ZM112.98 12.5837C112.981 12.5841 112.975 12.5988 112.982 12.6024C113.007 12.6153 113.039 12.6361 113.057 12.6453C113.1 12.6667 113.246 12.706 113.24 12.7547C113.239 12.7648 113.219 12.7865 113.22 12.7885C113.222 12.794 113.25 12.7928 113.236 12.8094C113.215 12.7983 113.194 12.7875 113.172 12.7768C113.184 12.7662 113.196 12.7555 113.208 12.7449C113.151 12.7255 113.169 12.7336 113.139 12.755C113.136 12.7394 113.132 12.7239 113.128 12.7082C113.103 12.7099 113.077 12.7118 113.052 12.714C113.06 12.7076 113.069 12.7012 113.077 12.6949C113.054 12.6652 113.058 12.6794 113.032 12.6925C113.036 12.6839 113.039 12.6754 113.043 12.6669C113.004 12.6744 113.01 12.6464 113.004 12.6432C112.99 12.6368 112.931 12.731 112.923 12.6087C112.881 12.6486 112.923 12.5495 112.89 12.5948C112.875 12.5247 112.937 12.573 112.969 12.5889C112.969 12.5889 112.969 12.5889 112.969 12.5889C112.971 12.5901 112.971 12.5792 112.98 12.5837ZM112.771 12.5585C112.81 12.5215 112.723 12.4841 112.728 12.5608C112.732 12.5645 112.735 12.5682 112.739 12.572C112.749 12.5675 112.76 12.563 112.771 12.5585C112.771 12.5585 112.771 12.5585 112.771 12.5585ZM111.926 12.294C111.837 12.2989 111.881 12.3348 111.915 12.3129C111.921 12.3086 111.926 12.3018 111.926 12.294ZM110.174 12.2831C110.173 12.289 110.173 12.295 110.173 12.3009C110.2 12.2911 110.257 12.3057 110.251 12.267C110.225 12.2722 110.2 12.2775 110.174 12.2831ZM110.394 12.2279C110.388 12.2262 110.362 12.2236 110.367 12.2378C110.379 12.2469 110.391 12.256 110.403 12.2651C110.407 12.2581 110.412 12.251 110.416 12.244C110.409 12.2426 110.396 12.2283 110.394 12.2279Z" fill="black"/>
</svg>
