<svg width="21" height="20" viewBox="0 0 21 20" fill="none" xmlns="http://www.w3.org/2000/svg">
<path d="M17.1301 4.42816C16.747 4.04288 16.2922 3.73725 15.7916 3.52874C15.291 3.32022 14.7545 3.21289 14.2126 3.21289C13.6707 3.21289 13.1342 3.32022 12.6336 3.52874C12.133 3.73725 11.6782 4.04288 11.2951 4.42816L10.5001 5.22736L9.70509 4.42816C8.93132 3.65029 7.88186 3.21329 6.78759 3.21329C5.69331 3.21329 4.64386 3.65029 3.87009 4.42816C3.09632 5.20602 2.66162 6.26103 2.66162 7.36109C2.66162 8.46116 3.09632 9.51617 3.87009 10.294L10.5001 16.9591L17.1301 10.294C17.5133 9.90894 17.8174 9.45171 18.0248 8.94846C18.2322 8.44522 18.339 7.90583 18.339 7.36109C18.339 6.81636 18.2322 6.27696 18.0248 5.77372C17.8174 5.27048 17.5133 4.81325 17.1301 4.42816Z" fill="#DB324D" stroke="#DB324D" stroke-width="2.66667" stroke-linecap="round" stroke-linejoin="round"/>
</svg>
